<svg xmlns="http://www.w3.org/2000/svg" xmlns:xlink="http://www.w3.org/1999/xlink" width="1920" zoomAndPan="magnify" viewBox="0 0 1440 323.999988" height="432" preserveAspectRatio="xMidYMid meet" version="1.0"><defs><clipPath id="dedda4f33e"><path d="M 0 0 L 1439.804688 0 L 1439.804688 323.789062 L 0 323.789062 Z M 0 0 " clip-rule="nonzero"/></clipPath><clipPath id="2b29b0101d"><path d="M 0 0 L 1439.804688 0 L 1439.804688 227 L 0 227 Z M 0 0 " clip-rule="nonzero"/></clipPath></defs><g clip-path="url(#dedda4f33e)"><path fill="#a60f0f" d="M -34.066406 -7.015625 L 1439.992188 -7.015625 L 1439.992188 432.496094 L -34.066406 432.496094 Z M -34.066406 -7.015625 " fill-opacity="1" fill-rule="nonzero"/></g><g clip-path="url(#2b29b0101d)"><path fill="#ed0024" d="M -288.253906 -140.320312 C -288.828125 -135.421875 -289.121094 -130.511719 -289.125 -125.578125 C -289.125 68.671875 155.917969 226.144531 704.90625 226.144531 C 1253.894531 226.144531 1698.9375 68.671875 1698.9375 -125.578125 C 1698.933594 -130.511719 1698.644531 -135.421875 1698.066406 -140.320312 Z M -288.253906 -140.320312 " fill-opacity="1" fill-rule="nonzero"/></g></svg>