<svg xmlns="http://www.w3.org/2000/svg" xmlns:xlink="http://www.w3.org/1999/xlink" width="73" zoomAndPan="magnify" viewBox="0 0 54.75 52.499999" height="70" preserveAspectRatio="xMidYMid meet" version="1.0"><defs><clipPath id="2c77301d59"><path d="M 3.773438 1.566406 L 50.578125 1.566406 L 50.578125 48.371094 L 3.773438 48.371094 Z M 3.773438 1.566406 " clip-rule="nonzero"/></clipPath><clipPath id="f2f0710098"><path d="M 11.6875 11.3125 L 20 11.3125 L 20 31 L 11.6875 31 Z M 11.6875 11.3125 " clip-rule="nonzero"/></clipPath><clipPath id="7d685720d8"><path d="M 18.171875 11.324219 L 25.597656 11.324219 L 25.597656 31.339844 L 18.171875 31.339844 Z M 18.171875 11.324219 " clip-rule="nonzero"/></clipPath><clipPath id="2f5ec96ea9"><path d="M 25 16 L 40 16 L 40 39 L 25 39 Z M 25 16 " clip-rule="nonzero"/></clipPath><clipPath id="5af29b9492"><path d="M 31.34375 13.445312 L 47.148438 19.945312 L 37.824219 42.617188 L 22.019531 36.121094 Z M 31.34375 13.445312 " clip-rule="nonzero"/></clipPath><clipPath id="5f94de74a1"><path d="M 31.34375 13.445312 L 47.148438 19.945312 L 37.824219 42.617188 L 22.019531 36.121094 Z M 31.34375 13.445312 " clip-rule="nonzero"/></clipPath><clipPath id="812dbb489b"><path d="M 27 26 L 29 26 L 29 37 L 27 37 Z M 27 26 " clip-rule="nonzero"/></clipPath><clipPath id="479a24f978"><path d="M 31.34375 13.445312 L 47.148438 19.945312 L 37.824219 42.617188 L 22.019531 36.121094 Z M 31.34375 13.445312 " clip-rule="nonzero"/></clipPath><clipPath id="f6d9b9e0f2"><path d="M 31.34375 13.445312 L 47.148438 19.945312 L 37.824219 42.617188 L 22.019531 36.121094 Z M 31.34375 13.445312 " clip-rule="nonzero"/></clipPath><clipPath id="819c4db2da"><path d="M 29 16 L 44 16 L 44 40 L 29 40 Z M 29 16 " clip-rule="nonzero"/></clipPath><clipPath id="e4259702b4"><path d="M 31.34375 13.445312 L 47.148438 19.945312 L 37.824219 42.617188 L 22.019531 36.121094 Z M 31.34375 13.445312 " clip-rule="nonzero"/></clipPath><clipPath id="338dd1030d"><path d="M 31.34375 13.445312 L 47.148438 19.945312 L 37.824219 42.617188 L 22.019531 36.121094 Z M 31.34375 13.445312 " clip-rule="nonzero"/></clipPath><clipPath id="cd4263053e"><path d="M 38.714844 16.484375 L 47.15625 19.953125 L 37.800781 42.714844 L 29.355469 39.242188 Z M 38.714844 16.484375 " clip-rule="nonzero"/></clipPath><clipPath id="fdab39cb09"><path d="M 40 19 L 43 19 L 43 29 L 40 29 Z M 40 19 " clip-rule="nonzero"/></clipPath><clipPath id="a11645240b"><path d="M 31.34375 13.445312 L 47.148438 19.945312 L 37.824219 42.617188 L 22.019531 36.121094 Z M 31.34375 13.445312 " clip-rule="nonzero"/></clipPath><clipPath id="9eadae59eb"><path d="M 31.34375 13.445312 L 47.148438 19.945312 L 37.824219 42.617188 L 22.019531 36.121094 Z M 31.34375 13.445312 " clip-rule="nonzero"/></clipPath></defs><g clip-path="url(#2c77301d59)"><path fill="#ed0024" d="M 27.246094 1.566406 C 14.28125 1.566406 3.773438 12.082031 3.773438 25.039062 C 3.773438 37.996094 14.28125 48.507812 27.246094 48.507812 C 40.210938 48.507812 50.71875 37.996094 50.71875 25.039062 C 50.71875 12.082031 40.210938 1.566406 27.246094 1.566406 Z M 27.246094 47.023438 C 15.105469 47.023438 5.261719 37.179688 5.261719 25.039062 C 5.261719 12.894531 15.105469 3.050781 27.246094 3.050781 C 39.390625 3.050781 49.230469 12.894531 49.230469 25.039062 C 49.230469 37.179688 39.390625 47.023438 27.246094 47.023438 Z M 27.246094 47.023438 " fill-opacity="1" fill-rule="nonzero"/></g><g clip-path="url(#f2f0710098)"><path fill="#ed0024" d="M 18.78125 26.011719 C 18.757812 27.773438 18.191406 29.085938 17.003906 30.121094 C 15.761719 29.613281 14.636719 28.527344 13.820312 27.035156 C 12.917969 25.386719 12.441406 23.398438 12.441406 21.28125 C 12.441406 18.980469 13.023438 16.78125 14.082031 15.082031 C 14.964844 13.664062 16.113281 12.703125 17.367188 12.3125 C 16.964844 13.714844 16.734375 15.871094 17.417969 18.886719 C 17.554688 19.492188 17.71875 20.117188 17.875 20.726562 C 18.332031 22.503906 18.804688 24.34375 18.78125 26.011719 Z M 18.601562 20.539062 C 18.445312 19.9375 18.285156 19.3125 18.152344 18.71875 C 17.355469 15.199219 17.894531 12.953125 18.285156 11.929688 L 18.515625 11.324219 L 17.878906 11.425781 C 14.347656 11.972656 11.6875 16.210938 11.6875 21.28125 C 11.6875 25.847656 13.851562 29.804688 16.949219 30.902344 L 17.148438 30.972656 L 17.3125 30.839844 C 18.777344 29.652344 19.503906 28.074219 19.53125 26.019531 C 19.554688 24.253906 19.070312 22.367188 18.601562 20.539062 " fill-opacity="1" fill-rule="nonzero"/></g><path fill="#ed0024" d="M 12.863281 22.445312 C 12.863281 22.445312 13.800781 28.148438 16.796875 29.480469 C 16.796875 29.480469 14.332031 27.269531 12.863281 22.445312 " fill-opacity="1" fill-rule="nonzero"/><g clip-path="url(#7d685720d8)"><path fill="#ed0024" d="M 20.574219 29.992188 C 21.695312 28.402344 22.570312 25.644531 20.882812 21.25 C 20.496094 20.242188 19.914062 18.394531 19.542969 16.484375 C 19.167969 14.578125 19.09375 13.097656 19.324219 12.171875 C 22.445312 12.675781 24.847656 16.59375 24.847656 21.28125 C 24.847656 23.570312 24.269531 25.765625 23.21875 27.460938 C 22.488281 28.636719 21.578125 29.503906 20.574219 29.992188 Z M 23.742188 14.53125 C 22.527344 12.664062 20.875 11.546875 19.089844 11.386719 L 18.804688 11.359375 L 18.703125 11.628906 C 17.847656 13.960938 19.332031 19.296875 20.183594 21.515625 C 22.167969 26.699219 20.382812 29.359375 19.140625 30.484375 L 18.195312 31.339844 L 19.453125 31.132812 C 22.957031 30.554688 25.597656 26.320312 25.597656 21.28125 C 25.597656 18.765625 24.9375 16.367188 23.742188 14.53125 " fill-opacity="1" fill-rule="nonzero"/></g><path fill="#ed0024" d="M 20.671875 12.898438 C 23.027344 15.402344 24.332031 19.289062 24.332031 19.289062 C 23.804688 15.085938 20.671875 12.898438 20.671875 12.898438 " fill-opacity="1" fill-rule="nonzero"/><g clip-path="url(#2f5ec96ea9)"><g clip-path="url(#5af29b9492)"><g clip-path="url(#5f94de74a1)"><path fill="#ed0024" d="M 32.539062 33.464844 C 31.6875 35.460938 30.429688 36.6875 28.59375 37.308594 C 27.421875 36.15625 26.652344 34.390625 26.417969 32.3125 C 26.164062 30.015625 26.550781 27.53125 27.539062 25.125 C 28.617188 22.507812 30.308594 20.277344 32.304688 18.84375 C 33.972656 17.644531 35.730469 17.085938 37.339844 17.226562 C 36.222656 18.636719 34.957031 20.980469 34.324219 24.726562 C 34.195312 25.480469 34.085938 26.269531 33.980469 27.03125 C 33.667969 29.269531 33.34375 31.582031 32.539062 33.464844 Z M 34.894531 27.160156 C 35 26.402344 35.109375 25.621094 35.234375 24.882812 C 35.972656 20.507812 37.636719 18.207031 38.5625 17.222656 L 39.105469 16.644531 L 38.332031 16.457031 C 34.066406 15.429688 29.058594 19.003906 26.6875 24.773438 C 24.550781 29.96875 25.160156 35.476562 28.167969 38.175781 L 28.363281 38.347656 L 28.609375 38.273438 C 30.835938 37.605469 32.398438 36.152344 33.390625 33.828125 C 34.242188 31.832031 34.574219 29.457031 34.894531 27.160156 " fill-opacity="1" fill-rule="nonzero"/></g></g></g><g clip-path="url(#812dbb489b)"><g clip-path="url(#479a24f978)"><g clip-path="url(#f6d9b9e0f2)"><path fill="#ed0024" d="M 27.476562 26.644531 C 27.476562 26.644531 25.878906 33.566406 28.660156 36.488281 C 28.660156 36.488281 26.890625 32.816406 27.476562 26.644531 " fill-opacity="1" fill-rule="nonzero"/></g></g></g><g clip-path="url(#819c4db2da)"><g clip-path="url(#e4259702b4)"><g clip-path="url(#338dd1030d)"><g clip-path="url(#cd4263053e)"><path fill="#ed0024" d="M 32.714844 38.832031 C 34.734375 37.550781 37.019531 34.824219 37.15625 29.035156 C 37.1875 27.710938 37.390625 25.335938 37.859375 22.992188 C 38.328125 20.644531 38.933594 18.929688 39.628906 17.980469 C 42.941406 20.015625 43.839844 25.597656 41.648438 30.925781 C 40.578125 33.53125 38.894531 35.753906 36.910156 37.191406 C 35.53125 38.1875 34.085938 38.746094 32.714844 38.832031 Z M 43.550781 22.734375 C 43.042969 20.042969 41.6875 18 39.730469 16.980469 L 39.417969 16.816406 L 39.175781 17.078125 C 37.113281 19.328125 36.304688 26.089844 36.234375 29.011719 C 36.070312 35.832031 32.796875 38.023438 30.859375 38.722656 L 29.382812 39.253906 L 30.910156 39.605469 C 35.164062 40.585938 40.144531 37.007812 42.5 31.277344 C 43.679688 28.414062 44.050781 25.382812 43.550781 22.734375 " fill-opacity="1" fill-rule="nonzero"/></g></g></g></g><g clip-path="url(#fdab39cb09)"><g clip-path="url(#a11645240b)"><g clip-path="url(#9eadae59eb)"><path fill="#ed0024" d="M 40.820312 19.441406 C 42.328125 23.390625 41.996094 28.417969 41.996094 28.417969 C 43.359375 23.394531 40.820312 19.441406 40.820312 19.441406 " fill-opacity="1" fill-rule="nonzero"/></g></g></g></svg>