<svg xmlns="http://www.w3.org/2000/svg" xmlns:xlink="http://www.w3.org/1999/xlink" width="73" zoomAndPan="magnify" viewBox="0 0 54.75 52.499999" height="70" preserveAspectRatio="xMidYMid meet" version="1.0"><defs><clipPath id="f965cebbcd"><path d="M 3.773438 1.566406 L 50.578125 1.566406 L 50.578125 48.371094 L 3.773438 48.371094 Z M 3.773438 1.566406 " clip-rule="nonzero"/></clipPath><clipPath id="8a6073e4bd"><path d="M 13 5.199219 L 39 5.199219 L 39 39 L 13 39 Z M 13 5.199219 " clip-rule="nonzero"/></clipPath><clipPath id="b7ff7a07a0"><path d="M 24 23 L 41.601562 23 L 41.601562 40.859375 L 24 40.859375 Z M 24 23 " clip-rule="nonzero"/></clipPath><clipPath id="b2ab6fb6c5"><path d="M 37 31 L 41.601562 31 L 41.601562 33 L 37 33 Z M 37 31 " clip-rule="nonzero"/></clipPath></defs><g clip-path="url(#f965cebbcd)"><path fill="#ed0024" d="M 27.246094 1.566406 C 14.28125 1.566406 3.773438 12.082031 3.773438 25.039062 C 3.773438 37.996094 14.28125 48.507812 27.246094 48.507812 C 40.210938 48.507812 50.71875 37.996094 50.71875 25.039062 C 50.71875 12.082031 40.210938 1.566406 27.246094 1.566406 Z M 27.246094 47.023438 C 15.105469 47.023438 5.261719 37.179688 5.261719 25.039062 C 5.261719 12.894531 15.105469 3.050781 27.246094 3.050781 C 39.390625 3.050781 49.230469 12.894531 49.230469 25.039062 C 49.230469 37.179688 39.390625 47.023438 27.246094 47.023438 Z M 27.246094 47.023438 " fill-opacity="1" fill-rule="nonzero"/></g><g clip-path="url(#8a6073e4bd)"><path fill="#ed0024" d="M 21.96875 38.910156 C 21.859375 38.910156 21.746094 38.890625 21.640625 38.855469 C 17.105469 37.34375 13.792969 33.203125 13.199219 28.296875 C 12.632812 23.632812 14.671875 19.351562 18.644531 16.847656 L 18.917969 16.675781 C 21 15.417969 22.21875 13.84375 22.554688 11.996094 C 22.921875 9.964844 22.117188 8.054688 21.242188 6.949219 C 20.976562 6.609375 20.945312 6.148438 21.167969 5.777344 C 21.390625 5.398438 21.8125 5.203125 22.242188 5.273438 C 25.007812 5.71875 31.429688 7.84375 31.757812 17.886719 C 32.445312 17.332031 33.410156 16.3125 33.6875 14.820312 C 33.769531 14.371094 34.132812 14.03125 34.585938 13.976562 C 35.042969 13.921875 35.472656 14.164062 35.664062 14.578125 C 36.523438 16.429688 38.039062 20.089844 38.550781 23.800781 C 38.597656 24.128906 38.367188 24.429688 38.039062 24.476562 C 37.710938 24.519531 37.410156 24.292969 37.363281 23.964844 C 36.910156 20.664062 35.609375 17.375 34.761719 15.488281 C 34.269531 17.304688 32.992188 18.476562 32.238281 19.035156 C 31.921875 19.265625 31.507812 19.304688 31.152344 19.132812 C 30.800781 18.957031 30.578125 18.605469 30.570312 18.210938 C 30.386719 9.25 25.078125 7.058594 22.417969 6.523438 C 23.359375 7.863281 24.140625 9.96875 23.734375 12.210938 C 23.339844 14.378906 21.894531 16.277344 19.546875 17.695312 L 19.285156 17.859375 C 15.710938 20.109375 13.878906 23.957031 14.386719 28.152344 C 14.910156 32.480469 17.761719 36.152344 21.6875 37.601562 C 20.449219 34.691406 19.46875 29.28125 25.183594 23.625 C 25.589844 23.226562 26.246094 23.226562 26.648438 23.621094 C 26.960938 23.929688 27.226562 24.210938 27.46875 24.484375 C 27.6875 24.734375 27.664062 25.113281 27.417969 25.332031 C 27.167969 25.550781 26.789062 25.527344 26.570312 25.277344 C 26.375 25.054688 26.160156 24.828125 25.917969 24.582031 C 20.890625 29.636719 21.507812 34.347656 22.917969 37.421875 C 23.09375 37.800781 23.027344 38.246094 22.746094 38.558594 C 22.546875 38.785156 22.261719 38.910156 21.96875 38.910156 Z M 21.828125 37.921875 C 21.828125 37.925781 21.828125 37.925781 21.828125 37.925781 C 21.828125 37.925781 21.828125 37.921875 21.828125 37.921875 Z M 31.769531 18.1875 Z M 31.523438 18.070312 Z M 34.574219 15.078125 C 34.574219 15.078125 34.574219 15.082031 34.574219 15.082031 C 34.574219 15.082031 34.574219 15.078125 34.574219 15.078125 Z M 34.574219 15.078125 " fill-opacity="1" fill-rule="nonzero"/></g><g clip-path="url(#b7ff7a07a0)"><path fill="#ed0024" d="M 33.207031 41.023438 C 28.429688 41.023438 24.546875 37.140625 24.546875 32.363281 C 24.546875 27.589844 28.429688 23.703125 33.207031 23.703125 C 37.980469 23.703125 41.867188 27.589844 41.867188 32.363281 C 41.867188 37.140625 37.980469 41.023438 33.207031 41.023438 Z M 33.207031 24.902344 C 29.089844 24.902344 25.742188 28.25 25.742188 32.363281 C 25.742188 36.476562 29.089844 39.824219 33.207031 39.824219 C 37.320312 39.824219 40.667969 36.476562 40.667969 32.363281 C 40.667969 28.25 37.320312 24.902344 33.207031 24.902344 Z M 33.207031 24.902344 " fill-opacity="1" fill-rule="nonzero"/></g><path fill="#ed0024" d="M 33.207031 38.144531 C 30.015625 38.144531 27.421875 35.550781 27.421875 32.363281 C 27.421875 29.175781 30.015625 26.578125 33.207031 26.578125 C 34.667969 26.578125 36.066406 27.125 37.136719 28.121094 C 37.378906 28.34375 37.390625 28.726562 37.167969 28.96875 C 36.941406 29.210938 36.5625 29.222656 36.320312 29 C 35.472656 28.210938 34.367188 27.777344 33.207031 27.777344 C 30.675781 27.777344 28.621094 29.835938 28.621094 32.363281 C 28.621094 34.890625 30.675781 36.949219 33.207031 36.949219 C 35.734375 36.949219 37.789062 34.890625 37.789062 32.363281 C 37.789062 31.449219 37.523438 30.566406 37.015625 29.8125 C 36.832031 29.539062 36.902344 29.167969 37.179688 28.980469 C 37.453125 28.796875 37.824219 28.871094 38.007812 29.144531 C 38.648438 30.097656 38.988281 31.210938 38.988281 32.363281 C 38.988281 35.550781 36.394531 38.144531 33.207031 38.144531 Z M 33.207031 38.144531 " fill-opacity="1" fill-rule="nonzero"/><path fill="#ed0024" d="M 28.023438 32.960938 L 25.429688 32.960938 C 25.097656 32.960938 24.832031 32.695312 24.832031 32.363281 C 24.832031 32.03125 25.097656 31.765625 25.429688 31.765625 L 28.023438 31.765625 C 28.355469 31.765625 28.625 32.03125 28.625 32.363281 C 28.625 32.695312 28.355469 32.960938 28.023438 32.960938 Z M 28.023438 32.960938 " fill-opacity="1" fill-rule="nonzero"/><g clip-path="url(#b2ab6fb6c5)"><path fill="#ed0024" d="M 40.984375 32.960938 L 38.390625 32.960938 C 38.058594 32.960938 37.792969 32.695312 37.792969 32.363281 C 37.792969 32.03125 38.058594 31.765625 38.390625 31.765625 L 40.984375 31.765625 C 41.316406 31.765625 41.585938 32.03125 41.585938 32.363281 C 41.585938 32.695312 41.316406 32.960938 40.984375 32.960938 Z M 40.984375 32.960938 " fill-opacity="1" fill-rule="nonzero"/></g><path fill="#ed0024" d="M 33.207031 27.78125 C 32.875 27.78125 32.605469 27.511719 32.605469 27.183594 L 32.605469 24.300781 C 32.605469 23.972656 32.875 23.703125 33.207031 23.703125 C 33.535156 23.703125 33.804688 23.972656 33.804688 24.300781 L 33.804688 27.183594 C 33.804688 27.511719 33.535156 27.78125 33.207031 27.78125 Z M 33.207031 27.78125 " fill-opacity="1" fill-rule="nonzero"/><path fill="#ed0024" d="M 33.230469 34.667969 C 32.625 34.667969 32.058594 34.429688 31.628906 34.003906 C 31.199219 33.574219 30.964844 33.003906 30.964844 32.398438 C 30.964844 31.792969 31.199219 31.226562 31.628906 30.796875 C 32.046875 30.378906 33.582031 29.464844 34.8125 28.816406 C 37.554688 27.371094 38.050781 27.527344 38.382812 27.855469 C 38.816406 28.289062 38.730469 28.898438 37.074219 31.195312 C 36.207031 32.394531 35.199219 33.636719 34.835938 34 C 34.40625 34.429688 33.835938 34.667969 33.230469 34.667969 Z M 37.070312 29.0625 C 35.671875 29.640625 32.960938 31.160156 32.476562 31.644531 C 32.273438 31.84375 32.164062 32.113281 32.164062 32.398438 C 32.164062 32.683594 32.273438 32.953125 32.476562 33.15625 C 32.878906 33.558594 33.582031 33.558594 33.988281 33.15625 C 34.585938 32.554688 36.332031 30.289062 37.070312 29.0625 Z M 37.070312 29.0625 " fill-opacity="1" fill-rule="nonzero"/></svg>