<svg xmlns="http://www.w3.org/2000/svg" xmlns:xlink="http://www.w3.org/1999/xlink" width="73" zoomAndPan="magnify" viewBox="0 0 54.75 52.499999" height="70" preserveAspectRatio="xMidYMid meet" version="1.0"><defs><clipPath id="7b002f3f02"><path d="M 3.773438 1.566406 L 50.578125 1.566406 L 50.578125 48.371094 L 3.773438 48.371094 Z M 3.773438 1.566406 " clip-rule="nonzero"/></clipPath><clipPath id="21b9a0eace"><path d="M 11.492188 10.851562 L 45.664062 10.851562 L 45.664062 37.597656 L 11.492188 37.597656 Z M 11.492188 10.851562 " clip-rule="nonzero"/></clipPath></defs><g clip-path="url(#7b002f3f02)"><path fill="#ed0024" d="M 27.246094 1.566406 C 14.28125 1.566406 3.773438 12.082031 3.773438 25.039062 C 3.773438 37.996094 14.28125 48.507812 27.246094 48.507812 C 40.210938 48.507812 50.71875 37.996094 50.71875 25.039062 C 50.71875 12.082031 40.210938 1.566406 27.246094 1.566406 Z M 27.246094 47.023438 C 15.105469 47.023438 5.261719 37.179688 5.261719 25.039062 C 5.261719 12.894531 15.105469 3.050781 27.246094 3.050781 C 39.390625 3.050781 49.230469 12.894531 49.230469 25.039062 C 49.230469 37.179688 39.390625 47.023438 27.246094 47.023438 Z M 27.246094 47.023438 " fill-opacity="1" fill-rule="nonzero"/></g><g clip-path="url(#21b9a0eace)"><path fill="#ed0024" d="M 26.359375 15.800781 C 26.359375 15.417969 26.132812 15.226562 25.730469 14.929688 C 25.332031 14.632812 24.824219 14.25 24.824219 13.5 C 24.824219 12.75 25.332031 12.367188 25.730469 12.070312 C 26.132812 11.773438 26.359375 11.582031 26.359375 11.199219 C 26.359375 11.007812 26.515625 10.851562 26.707031 10.851562 C 26.898438 10.851562 27.054688 11.007812 27.054688 11.199219 C 27.054688 11.949219 26.550781 12.332031 26.148438 12.628906 C 25.75 12.925781 25.523438 13.117188 25.523438 13.5 C 25.523438 13.882812 25.75 14.074219 26.148438 14.371094 C 26.550781 14.667969 27.054688 15.050781 27.054688 15.800781 C 27.054688 16.550781 26.550781 16.933594 26.148438 17.230469 C 25.75 17.527344 25.523438 17.71875 25.523438 18.101562 C 25.523438 18.292969 25.363281 18.449219 25.171875 18.449219 C 24.980469 18.449219 24.824219 18.292969 24.824219 18.101562 C 24.824219 17.351562 25.332031 16.96875 25.730469 16.671875 C 26.132812 16.375 26.359375 16.183594 26.359375 15.800781 Z M 26.253906 18.800781 C 26.253906 18.992188 26.410156 19.148438 26.601562 19.148438 C 26.792969 19.148438 26.953125 18.992188 26.953125 18.800781 C 26.953125 18.417969 27.179688 18.222656 27.578125 17.929688 C 27.980469 17.632812 28.484375 17.25 28.484375 16.5 C 28.484375 16.308594 28.328125 16.148438 28.136719 16.148438 C 27.945312 16.148438 27.789062 16.308594 27.789062 16.5 C 27.789062 16.882812 27.5625 17.074219 27.160156 17.371094 C 26.742188 17.683594 26.253906 18.050781 26.253906 18.800781 Z M 39.570312 28.542969 C 39.398438 28.472656 39.1875 28.578125 39.117188 28.753906 C 38.804688 29.605469 38.457031 30.410156 38.054688 31.125 C 37.96875 31.296875 38.019531 31.507812 38.195312 31.59375 C 38.246094 31.628906 38.300781 31.648438 38.367188 31.648438 C 38.492188 31.648438 38.613281 31.578125 38.683594 31.472656 C 38.753906 31.351562 38.804688 31.226562 38.875 31.105469 L 40.914062 31.105469 C 43.335938 31.105469 45.304688 29.136719 45.304688 26.714844 L 45.304688 25.230469 C 45.304688 22.929688 43.527344 21.046875 41.28125 20.855469 C 41.28125 20.785156 41.28125 20.734375 41.296875 20.664062 C 41.296875 20.472656 41.15625 20.316406 40.964844 20.300781 C 40.773438 20.300781 40.617188 20.4375 40.601562 20.628906 C 40.566406 21.886719 40.441406 23.121094 40.269531 24.324219 C 40.234375 24.515625 40.375 24.691406 40.566406 24.726562 C 40.582031 24.726562 40.601562 24.726562 40.617188 24.726562 C 40.792969 24.726562 40.929688 24.605469 40.964844 24.429688 C 41.105469 23.488281 41.210938 22.511719 41.28125 21.535156 C 43.164062 21.710938 44.644531 23.28125 44.644531 25.214844 L 44.644531 26.695312 C 44.644531 28.734375 42.988281 30.390625 40.949219 30.390625 L 39.257812 30.390625 C 39.464844 29.9375 39.660156 29.46875 39.832031 28.980469 C 39.832031 28.804688 39.746094 28.613281 39.570312 28.542969 Z M 40.894531 28.632812 C 40.703125 28.632812 40.546875 28.789062 40.546875 28.980469 C 40.546875 29.171875 40.703125 29.328125 40.894531 29.328125 C 42.34375 29.328125 43.511719 28.160156 43.511719 26.714844 L 43.511719 25.230469 C 43.511719 24.308594 43.003906 23.4375 42.203125 22.964844 C 42.027344 22.859375 41.820312 22.929688 41.734375 23.085938 C 41.628906 23.261719 41.699219 23.472656 41.855469 23.558594 C 42.449219 23.90625 42.8125 24.535156 42.8125 25.214844 L 42.8125 26.695312 C 42.8125 27.757812 41.941406 28.632812 40.894531 28.632812 Z M 19.753906 29.886719 C 18.671875 28.996094 16.929688 29.101562 15.65625 29.503906 C 14.785156 29.765625 13.984375 30.148438 13.285156 30.636719 C 12.78125 31 12.101562 31.488281 11.855469 32.203125 C 11.558594 33.039062 12.011719 33.84375 13.058594 34.332031 C 13.878906 34.714844 14.730469 35.046875 15.585938 35.289062 C 15.621094 35.308594 15.707031 35.324219 15.8125 35.34375 L 15.832031 35.34375 C 16.351562 35.480469 16.859375 35.636719 17.347656 35.636719 C 17.519531 35.636719 17.679688 35.621094 17.835938 35.585938 C 18.132812 35.515625 18.707031 35.289062 19.210938 34.558594 C 19.316406 34.402344 19.28125 34.175781 19.125 34.070312 C 18.96875 33.964844 18.742188 34 18.636719 34.15625 C 18.253906 34.695312 17.871094 34.855469 17.660156 34.90625 C 17.207031 35.011719 16.613281 34.855469 16.003906 34.679688 L 15.96875 34.679688 C 15.953125 34.679688 15.953125 34.679688 15.933594 34.679688 C 15.882812 34.660156 15.8125 34.644531 15.796875 34.644531 C 15.796875 34.644531 15.777344 34.644531 15.777344 34.644531 C 14.941406 34.417969 14.121094 34.105469 13.335938 33.738281 C 12.9375 33.546875 12.273438 33.128906 12.5 32.464844 C 12.675781 31.941406 13.234375 31.542969 13.6875 31.226562 C 14.3125 30.773438 15.0625 30.425781 15.847656 30.183594 C 16.894531 29.851562 18.425781 29.730469 19.300781 30.445312 C 19.613281 30.707031 19.785156 31.054688 19.804688 31.4375 C 19.820312 31.75 19.71875 32.082031 19.507812 32.34375 C 18.636719 31.890625 17.78125 31.839844 17.3125 31.820312 C 16.457031 31.769531 15.585938 31.890625 14.765625 32.167969 C 14.59375 32.238281 14.488281 32.429688 14.558594 32.605469 C 14.628906 32.78125 14.820312 32.882812 14.992188 32.8125 C 15.726562 32.554688 16.492188 32.449219 17.277344 32.5 C 17.347656 32.5 17.433594 32.519531 17.519531 32.519531 C 17.257812 32.746094 17.050781 33.058594 16.964844 33.511719 C 16.929688 33.703125 17.050781 33.878906 17.242188 33.914062 C 17.257812 33.914062 17.292969 33.914062 17.3125 33.914062 C 17.46875 33.914062 17.625 33.789062 17.660156 33.632812 C 17.78125 32.988281 18.390625 32.761719 18.617188 32.691406 C 18.863281 32.761719 19.125 32.867188 19.386719 33.023438 C 20.484375 33.652344 21.007812 34.730469 21.234375 35.410156 C 21.269531 35.515625 21.304688 35.636719 21.339844 35.742188 L 21.339844 35.761719 C 21.582031 36.875 22.574219 37.675781 23.726562 37.710938 C 24.5625 37.730469 25.453125 37.746094 26.253906 37.746094 C 26.269531 37.746094 26.269531 37.746094 26.289062 37.746094 L 26.464844 37.746094 C 28.3125 37.746094 30.019531 37.675781 31.082031 37.574219 C 31.535156 37.519531 31.847656 37.484375 32.042969 37.417969 C 32.074219 37.417969 32.109375 37.398438 32.128906 37.382812 L 32.199219 37.347656 C 32.199219 37.347656 32.214844 37.347656 32.214844 37.328125 L 32.285156 37.292969 C 32.300781 37.292969 32.300781 37.277344 32.320312 37.277344 C 32.5625 37.101562 32.773438 36.894531 32.964844 36.667969 C 33.367188 36.195312 33.644531 35.601562 33.765625 34.976562 C 33.785156 34.957031 33.800781 34.957031 33.820312 34.941406 C 33.835938 34.941406 33.835938 34.921875 33.835938 34.921875 C 40.355469 30.511719 39.796875 19.324219 39.761719 18.800781 C 39.761719 18.417969 39.484375 18.050781 36.503906 17.738281 C 34.621094 17.527344 31.972656 17.386719 29.078125 17.335938 C 28.886719 17.335938 28.730469 17.492188 28.730469 17.683594 C 28.730469 17.875 28.886719 18.03125 29.078125 18.03125 C 34.796875 18.136719 37.84375 18.539062 38.820312 18.835938 C 37.566406 19.21875 33.085938 19.652344 26.269531 19.652344 C 19.457031 19.652344 14.976562 19.21875 13.722656 18.835938 C 14.785156 18.519531 18.199219 18.121094 23.988281 18.03125 C 24.179688 18.03125 24.335938 17.875 24.335938 17.683594 C 24.335938 17.492188 24.179688 17.335938 23.988281 17.335938 C 20.972656 17.386719 18.199219 17.527344 16.195312 17.738281 C 13.074219 18.066406 12.761719 18.433594 12.761719 18.816406 C 12.746094 19.042969 12.484375 23.941406 14.140625 28.597656 C 14.191406 28.734375 14.332031 28.824219 14.46875 28.824219 C 14.503906 28.824219 14.539062 28.824219 14.59375 28.804688 C 14.765625 28.734375 14.871094 28.542969 14.800781 28.351562 C 13.527344 24.761719 13.425781 20.910156 13.441406 19.460938 C 13.617188 19.53125 13.84375 19.585938 14.070312 19.617188 C 14.75 19.757812 15.707031 19.878906 16.929688 20.003906 C 19.421875 20.230469 22.75 20.351562 26.269531 20.351562 C 29.792969 20.351562 33.121094 20.230469 35.613281 20.003906 C 36.835938 19.898438 37.792969 19.757812 38.472656 19.617188 C 38.71875 19.566406 38.925781 19.515625 39.101562 19.460938 C 39.117188 21.867188 38.820312 30.757812 33.4375 34.367188 C 33.417969 34.367188 33.417969 34.382812 33.402344 34.382812 C 33.367188 34.402344 33.332031 34.433594 33.296875 34.453125 C 33.175781 34.488281 32.894531 34.574219 32.269531 34.644531 C 30.890625 34.820312 28.640625 34.921875 26.238281 34.921875 C 25.75 34.921875 25.242188 34.921875 24.753906 34.90625 C 24.5625 34.90625 24.40625 35.0625 24.40625 35.253906 C 24.40625 35.445312 24.5625 35.601562 24.753906 35.601562 C 25.242188 35.621094 25.75 35.621094 26.238281 35.621094 C 28.660156 35.621094 30.960938 35.515625 32.355469 35.34375 C 32.582031 35.308594 32.773438 35.289062 32.949219 35.253906 C 32.824219 35.621094 32.632812 35.953125 32.40625 36.25 C 32.25 36.441406 32.074219 36.597656 31.902344 36.738281 L 31.867188 36.753906 C 31.847656 36.753906 31.847656 36.769531 31.832031 36.769531 C 31.746094 36.804688 31.519531 36.839844 30.996094 36.894531 C 29.914062 36.996094 28.152344 37.066406 26.269531 37.066406 C 26.269531 37.066406 26.253906 37.066406 26.253906 37.066406 C 25.453125 37.066406 24.546875 37.050781 23.710938 37.03125 C 22.871094 37.015625 22.15625 36.441406 21.984375 35.621094 L 21.984375 35.601562 C 21.964844 35.5 21.914062 35.375 21.878906 35.238281 C 21.53125 34.015625 21.425781 32.796875 21.582031 31.578125 C 21.667969 30.914062 21.773438 30.09375 22.15625 29.242188 C 22.15625 29.242188 22.15625 29.222656 22.15625 29.222656 C 22.332031 28.839844 22.558594 28.4375 22.871094 28.039062 C 23.027344 27.933594 23.691406 27.601562 24.355469 28.039062 C 24.511719 28.144531 24.738281 28.089844 24.84375 27.933594 C 24.945312 27.777344 24.894531 27.550781 24.738281 27.445312 C 24.40625 27.238281 24.09375 27.148438 23.796875 27.132812 C 24.441406 26.625 25.085938 26.328125 25.589844 26.171875 C 25.765625 26.101562 25.871094 25.910156 25.816406 25.738281 C 25.75 25.5625 25.558594 25.457031 25.382812 25.511719 C 24.546875 25.789062 23.359375 26.382812 22.382812 27.566406 C 22.070312 27.949219 21.828125 28.335938 21.632812 28.734375 C 21.164062 28.613281 20.761719 28.316406 20.535156 27.917969 C 20.292969 27.496094 20.257812 26.992188 20.414062 26.503906 C 20.46875 26.347656 20.554688 26.171875 20.640625 26.015625 C 21.703125 24.167969 24.546875 23.488281 26.722656 23.628906 C 27.648438 23.679688 28.746094 23.835938 29.078125 24.570312 C 29.425781 25.335938 28.710938 26.261719 28.136719 26.992188 C 27.996094 27.167969 27.875 27.324219 27.769531 27.480469 C 26.621094 29.101562 25.261719 30.757812 23.515625 29.972656 C 23.34375 29.886719 23.132812 29.972656 23.0625 30.148438 C 22.976562 30.320312 23.0625 30.53125 23.238281 30.601562 C 23.65625 30.792969 24.058594 30.878906 24.421875 30.878906 C 26.238281 30.878906 27.5625 28.980469 28.34375 27.882812 C 28.449219 27.742188 28.574219 27.585938 28.695312 27.429688 C 29.339844 26.589844 30.246094 25.421875 29.722656 24.289062 C 29.183594 23.105469 27.492188 23 26.777344 22.949219 C 24.300781 22.773438 21.269531 23.558594 20.011719 25.617188 C 19.890625 25.824219 19.785156 26.035156 19.71875 26.242188 C 19.492188 26.921875 19.542969 27.621094 19.890625 28.230469 C 20.207031 28.769531 20.710938 29.152344 21.320312 29.34375 C 21.042969 30.148438 20.9375 30.898438 20.867188 31.472656 C 20.78125 32.101562 20.78125 32.726562 20.816406 33.355469 C 20.605469 33.128906 20.378906 32.902344 20.101562 32.691406 C 20.378906 32.308594 20.519531 31.855469 20.5 31.402344 C 20.484375 30.808594 20.207031 30.269531 19.753906 29.886719 Z M 19.753906 29.886719 " fill-opacity="1" fill-rule="nonzero"/></g></svg>