<svg xmlns="http://www.w3.org/2000/svg" xmlns:xlink="http://www.w3.org/1999/xlink" width="56" zoomAndPan="magnify" viewBox="0 0 42 40.499999" height="54" preserveAspectRatio="xMidYMid meet" version="1.0"><path fill="#ed0024" d="M 33.792969 6.453125 C 33.039062 7.019531 32.378906 7.515625 31.648438 8.066406 C 27.628906 4.792969 23.078125 3.445312 17.984375 4.429688 C 14.152344 5.167969 11.011719 7.140625 8.550781 10.1875 C 3.765625 16.109375 3.980469 24.800781 9.070312 30.574219 C 14.222656 36.425781 22.898438 37.6875 29.484375 33.621094 C 35.503906 29.90625 39.660156 21.40625 35.066406 12.210938 C 35.636719 11.574219 36.242188 10.894531 36.863281 10.199219 C 41.003906 15.808594 41.734375 27.15625 33.140625 34.414062 C 25.328125 41.011719 13.515625 40.039062 6.835938 32.273438 C 0.125 24.472656 0.972656 12.695312 8.695312 5.980469 C 16.738281 -1.007812 28.023438 0.558594 33.792969 6.453125 Z M 33.792969 6.453125 " fill-opacity="1" fill-rule="nonzero"/><path fill="#ed0024" d="M 17.984375 22.683594 C 19.285156 21.269531 20.339844 20.097656 21.421875 18.953125 C 26.605469 13.46875 32.300781 8.585938 38.671875 4.511719 C 39.136719 4.214844 39.621094 3.921875 40.136719 3.722656 C 40.3125 3.65625 40.664062 3.820312 40.820312 3.988281 C 40.910156 4.085938 40.839844 4.445312 40.726562 4.601562 C 40.507812 4.894531 40.210938 5.132812 39.945312 5.390625 C 33.636719 11.554688 28.136719 18.351562 23.859375 26.097656 C 23.433594 26.867188 23.027344 27.648438 22.605469 28.421875 C 21.824219 29.851562 20.621094 30.609375 18.992188 30.597656 C 17.300781 30.585938 16.121094 29.734375 15.304688 28.277344 C 13.925781 25.808594 12.546875 23.339844 11.101562 20.910156 C 10.488281 19.878906 9.707031 18.945312 8.996094 17.96875 C 8.832031 17.742188 8.65625 17.527344 8.488281 17.304688 C 8.230469 16.960938 7.992188 16.601562 8.316406 16.175781 C 8.664062 15.707031 9.125 15.777344 9.566406 15.996094 C 10.273438 16.34375 11.035156 16.628906 11.644531 17.105469 C 13.472656 18.53125 15.246094 20.023438 17.015625 21.515625 C 17.363281 21.808594 17.605469 22.222656 17.984375 22.683594 Z M 17.984375 22.683594 " fill-opacity="1" fill-rule="nonzero"/></svg>