<svg xmlns="http://www.w3.org/2000/svg" xmlns:xlink="http://www.w3.org/1999/xlink" width="73" zoomAndPan="magnify" viewBox="0 0 54.75 52.499999" height="70" preserveAspectRatio="xMidYMid meet" version="1.0"><defs><clipPath id="ca8471da44"><path d="M 3.773438 1.566406 L 50.578125 1.566406 L 50.578125 48.371094 L 3.773438 48.371094 Z M 3.773438 1.566406 " clip-rule="nonzero"/></clipPath><clipPath id="34239e5231"><path d="M 11.128906 8.921875 L 43.074219 8.921875 L 43.074219 40.867188 L 11.128906 40.867188 Z M 11.128906 8.921875 " clip-rule="nonzero"/></clipPath></defs><g clip-path="url(#ca8471da44)"><path fill="#ed0024" d="M 27.246094 1.566406 C 14.28125 1.566406 3.773438 12.082031 3.773438 25.039062 C 3.773438 37.996094 14.28125 48.507812 27.246094 48.507812 C 40.210938 48.507812 50.71875 37.996094 50.71875 25.039062 C 50.71875 12.082031 40.210938 1.566406 27.246094 1.566406 Z M 27.246094 47.023438 C 15.105469 47.023438 5.261719 37.179688 5.261719 25.039062 C 5.261719 12.894531 15.105469 3.050781 27.246094 3.050781 C 39.390625 3.050781 49.230469 12.894531 49.230469 25.039062 C 49.230469 37.179688 39.390625 47.023438 27.246094 47.023438 Z M 27.246094 47.023438 " fill-opacity="1" fill-rule="nonzero"/></g><g clip-path="url(#34239e5231)"><path fill="#ed0024" d="M 27.246094 8.921875 C 18.359375 8.921875 11.128906 16.152344 11.128906 25.039062 C 11.128906 33.925781 18.359375 41.15625 27.246094 41.15625 C 36.136719 41.15625 43.367188 33.925781 43.367188 25.039062 C 43.367188 16.152344 36.136719 8.921875 27.246094 8.921875 Z M 27.246094 40.355469 C 18.804688 40.355469 11.933594 33.484375 11.933594 25.039062 C 11.933594 16.59375 18.804688 9.722656 27.246094 9.722656 C 35.691406 9.722656 42.5625 16.59375 42.5625 25.039062 C 42.5625 33.484375 35.691406 40.355469 27.246094 40.355469 Z M 16.59375 22.542969 C 16.789062 22.734375 17.046875 22.839844 17.3125 22.855469 C 17.339844 23.121094 17.460938 23.375 17.65625 23.5625 C 17.878906 23.777344 18.160156 23.878906 18.445312 23.878906 C 18.746094 23.878906 19.042969 23.761719 19.269531 23.53125 C 19.652344 23.128906 19.683594 22.515625 19.371094 22.078125 L 20.140625 21.273438 C 20.238281 21.300781 20.339844 21.316406 20.441406 21.316406 C 20.742188 21.316406 21.039062 21.199219 21.261719 20.964844 L 21.320312 20.90625 C 21.75 20.515625 22.25 20.320312 22.851562 20.304688 C 23.6875 20.285156 24.464844 19.941406 25.042969 19.335938 C 25.625 18.730469 25.933594 17.9375 25.917969 17.097656 C 25.898438 16.257812 25.554688 15.476562 24.949219 14.894531 C 24.34375 14.3125 23.546875 14.003906 22.707031 14.019531 C 21.867188 14.039062 21.085938 14.382812 20.503906 14.988281 C 19.917969 15.601562 19.609375 16.402344 19.632812 17.25 C 19.648438 17.851562 19.46875 18.382812 19.097656 18.828125 L 19.066406 18.859375 C 18.777344 19.160156 18.691406 19.574219 18.792969 19.949219 L 18.003906 20.769531 C 17.554688 20.472656 16.945312 20.53125 16.558594 20.933594 C 16.125 21.386719 16.140625 22.109375 16.59375 22.542969 Z M 19.644531 19.414062 L 19.683594 19.371094 C 19.691406 19.367188 19.695312 19.359375 19.703125 19.351562 C 20.210938 18.75 20.457031 18.035156 20.433594 17.226562 C 20.417969 16.597656 20.648438 16 21.085938 15.542969 C 21.515625 15.09375 22.097656 14.835938 22.722656 14.824219 C 22.742188 14.824219 22.757812 14.824219 22.773438 14.824219 C 23.378906 14.824219 23.953125 15.050781 24.394531 15.472656 C 24.84375 15.90625 25.097656 16.488281 25.113281 17.113281 C 25.125 17.738281 24.894531 18.332031 24.460938 18.78125 C 24.03125 19.230469 23.453125 19.488281 22.832031 19.5 C 22.035156 19.519531 21.34375 19.796875 20.769531 20.324219 C 20.761719 20.328125 20.753906 20.335938 20.75 20.339844 L 20.683594 20.410156 C 20.554688 20.542969 20.34375 20.546875 20.210938 20.421875 C 20.167969 20.378906 20.136719 20.324219 20.121094 20.261719 C 20.082031 20.117188 19.964844 20.003906 19.8125 19.972656 C 19.753906 19.957031 19.699219 19.929688 19.652344 19.886719 C 19.523438 19.757812 19.515625 19.546875 19.644531 19.414062 Z M 17.136719 21.488281 C 17.265625 21.355469 17.480469 21.351562 17.613281 21.480469 C 17.636719 21.5 17.652344 21.523438 17.667969 21.546875 C 17.734375 21.65625 17.84375 21.726562 17.96875 21.742188 C 18.09375 21.753906 18.21875 21.710938 18.304688 21.621094 L 19.277344 20.605469 C 19.324219 20.632812 19.375 20.664062 19.425781 20.683594 C 19.445312 20.722656 19.464844 20.761719 19.488281 20.796875 L 18.511719 21.820312 C 18.425781 21.910156 18.386719 22.035156 18.402344 22.15625 C 18.421875 22.28125 18.5 22.390625 18.609375 22.449219 C 18.632812 22.460938 18.660156 22.480469 18.679688 22.5 C 18.8125 22.628906 18.816406 22.84375 18.691406 22.976562 C 18.5625 23.109375 18.347656 23.113281 18.214844 22.984375 C 18.128906 22.902344 18.09375 22.777344 18.121094 22.660156 C 18.167969 22.480469 18.113281 22.292969 17.980469 22.167969 C 17.84375 22.039062 17.660156 21.992188 17.480469 22.042969 C 17.363281 22.078125 17.234375 22.046875 17.148438 21.964844 C 17.015625 21.835938 17.011719 21.621094 17.136719 21.488281 Z M 27.246094 11.207031 C 19.621094 11.207031 13.417969 17.410156 13.417969 25.039062 C 13.417969 32.664062 19.621094 38.871094 27.246094 38.871094 C 34.875 38.871094 41.078125 32.664062 41.078125 25.039062 C 41.078125 17.410156 34.875 11.207031 27.246094 11.207031 Z M 26.847656 12.015625 L 26.847656 24.636719 L 14.226562 24.636719 C 14.433594 17.773438 19.980469 12.226562 26.847656 12.015625 Z M 14.226562 25.441406 L 26.847656 25.441406 L 26.847656 38.0625 C 19.980469 37.851562 14.433594 32.304688 14.226562 25.441406 Z M 27.648438 38.0625 L 27.648438 12.015625 C 34.648438 12.230469 40.277344 17.988281 40.277344 25.039062 C 40.277344 32.089844 34.648438 37.847656 27.648438 38.0625 Z M 25.609375 31.832031 C 25.613281 31.605469 25.554688 31.382812 25.449219 31.1875 C 25.546875 31.003906 25.601562 30.796875 25.605469 30.585938 C 25.613281 30.234375 25.480469 29.902344 25.238281 29.652344 C 25.042969 29.449219 24.792969 29.320312 24.523438 29.273438 C 24.445312 28.804688 24.113281 28.410156 23.671875 28.25 C 23.554688 27.859375 23.265625 27.542969 22.886719 27.394531 C 22.796875 26.769531 22.261719 26.28125 21.609375 26.269531 C 21.398438 26.265625 21.191406 26.3125 21.007812 26.40625 C 20.8125 26.289062 20.589844 26.226562 20.355469 26.222656 C 20.136719 26.21875 19.925781 26.269531 19.734375 26.367188 C 19.542969 26.253906 19.328125 26.195312 19.101562 26.191406 C 18.75 26.183594 18.421875 26.316406 18.167969 26.558594 C 17.917969 26.804688 17.777344 27.128906 17.769531 27.480469 C 17.769531 27.59375 17.78125 27.707031 17.808594 27.816406 C 17.53125 28.039062 17.359375 28.375 17.351562 28.746094 C 17.351562 28.847656 17.363281 28.945312 17.382812 29.042969 C 17.078125 29.261719 16.882812 29.617188 16.878906 30.011719 C 16.871094 30.320312 16.988281 30.617188 17.191406 30.839844 C 17.128906 30.984375 17.09375 31.140625 17.09375 31.300781 C 17.082031 31.871094 17.46875 32.355469 17.996094 32.496094 C 18.042969 32.703125 18.144531 32.890625 18.292969 33.046875 C 18.464844 33.222656 18.679688 33.339844 18.914062 33.378906 C 18.996094 33.785156 19.289062 34.117188 19.675781 34.25 C 19.820312 34.773438 20.300781 35.160156 20.863281 35.167969 C 21.085938 35.171875 21.304688 35.117188 21.492188 35.011719 C 21.6875 35.140625 21.917969 35.210938 22.15625 35.214844 C 22.390625 35.21875 22.617188 35.15625 22.8125 35.042969 C 23 35.160156 23.21875 35.222656 23.445312 35.226562 C 23.453125 35.226562 23.457031 35.226562 23.464844 35.226562 C 24.007812 35.226562 24.480469 34.875 24.652344 34.382812 C 25.175781 34.210938 25.542969 33.726562 25.554688 33.15625 C 25.554688 32.929688 25.503906 32.714844 25.402344 32.519531 C 25.53125 32.316406 25.605469 32.078125 25.609375 31.832031 Z M 24.605469 32.78125 C 24.703125 32.878906 24.753906 33.007812 24.75 33.144531 C 24.746094 33.40625 24.546875 33.621094 24.285156 33.640625 C 24.089844 33.65625 23.933594 33.8125 23.917969 34.007812 C 23.898438 34.242188 23.699219 34.421875 23.464844 34.421875 C 23.464844 34.421875 23.460938 34.421875 23.457031 34.421875 C 23.328125 34.421875 23.207031 34.363281 23.121094 34.265625 C 23.046875 34.175781 22.9375 34.125 22.820312 34.125 C 22.820312 34.125 22.816406 34.125 22.816406 34.125 C 22.703125 34.125 22.59375 34.175781 22.519531 34.257812 C 22.429688 34.355469 22.304688 34.410156 22.171875 34.410156 C 22.035156 34.410156 21.910156 34.347656 21.824219 34.242188 C 21.753906 34.152344 21.644531 34.097656 21.527344 34.09375 C 21.410156 34.089844 21.296875 34.136719 21.21875 34.21875 C 21.132812 34.3125 21.015625 34.363281 20.886719 34.363281 C 20.882812 34.363281 20.882812 34.363281 20.878906 34.363281 C 20.632812 34.359375 20.433594 34.15625 20.433594 33.910156 C 20.433594 33.691406 20.257812 33.515625 20.039062 33.507812 C 19.847656 33.503906 19.695312 33.34375 19.699219 33.152344 C 19.699219 33.125 19.703125 33.097656 19.710938 33.070312 C 19.746094 32.929688 19.707031 32.785156 19.605469 32.683594 C 19.5 32.582031 19.355469 32.542969 19.214844 32.582031 C 19.183594 32.589844 19.152344 32.59375 19.117188 32.59375 C 19.023438 32.59375 18.9375 32.554688 18.871094 32.488281 C 18.808594 32.421875 18.773438 32.332031 18.773438 32.238281 C 18.773438 32.222656 18.773438 32.207031 18.777344 32.191406 C 18.796875 32.070312 18.757812 31.945312 18.675781 31.855469 C 18.589844 31.765625 18.46875 31.71875 18.34375 31.730469 C 18.332031 31.730469 18.316406 31.730469 18.300781 31.730469 C 18.074219 31.726562 17.894531 31.539062 17.898438 31.3125 C 17.898438 31.207031 17.941406 31.109375 18.011719 31.03125 C 18.101562 30.941406 18.144531 30.8125 18.121094 30.6875 C 18.101562 30.5625 18.023438 30.453125 17.90625 30.394531 C 17.765625 30.324219 17.679688 30.179688 17.683594 30.019531 C 17.6875 29.832031 17.816406 29.671875 18 29.628906 C 18.128906 29.597656 18.238281 29.503906 18.285156 29.378906 C 18.332031 29.25 18.3125 29.109375 18.234375 29.003906 C 18.183594 28.929688 18.15625 28.84375 18.15625 28.757812 C 18.160156 28.582031 18.273438 28.425781 18.441406 28.371094 C 18.558594 28.332031 18.652344 28.242188 18.695312 28.125 C 18.738281 28.007812 18.722656 27.878906 18.65625 27.773438 C 18.601562 27.6875 18.574219 27.589844 18.574219 27.492188 C 18.578125 27.355469 18.632812 27.230469 18.730469 27.136719 C 18.828125 27.039062 18.957031 26.988281 19.089844 26.992188 C 19.222656 26.992188 19.347656 27.046875 19.441406 27.140625 C 19.59375 27.292969 19.835938 27.296875 19.996094 27.152344 C 20.089844 27.066406 20.21875 27.019531 20.347656 27.023438 C 20.480469 27.023438 20.609375 27.078125 20.703125 27.175781 C 20.851562 27.332031 21.09375 27.339844 21.257812 27.199219 C 21.351562 27.113281 21.472656 27.066406 21.601562 27.070312 C 21.878906 27.074219 22.105469 27.308594 22.101562 27.585938 C 22.097656 27.609375 22.097656 27.628906 22.09375 27.652344 C 22.078125 27.761719 22.109375 27.871094 22.179688 27.957031 C 22.246094 28.046875 22.347656 28.097656 22.457031 28.109375 C 22.710938 28.128906 22.910156 28.339844 22.921875 28.59375 C 22.929688 28.792969 23.085938 28.957031 23.285156 28.976562 C 23.546875 29 23.746094 29.226562 23.742188 29.488281 C 23.742188 29.523438 23.738281 29.554688 23.730469 29.585938 C 23.703125 29.71875 23.742188 29.855469 23.839844 29.949219 C 23.933594 30.046875 24.070312 30.089844 24.203125 30.0625 C 24.234375 30.058594 24.273438 30.054688 24.308594 30.054688 C 24.445312 30.054688 24.570312 30.109375 24.664062 30.207031 C 24.757812 30.304688 24.808594 30.433594 24.808594 30.570312 C 24.804688 30.699219 24.753906 30.820312 24.667969 30.910156 C 24.523438 31.066406 24.523438 31.308594 24.667969 31.460938 C 24.761719 31.558594 24.8125 31.6875 24.808594 31.820312 C 24.804688 31.960938 24.742188 32.101562 24.632812 32.195312 C 24.550781 32.265625 24.5 32.371094 24.496094 32.480469 C 24.488281 32.59375 24.53125 32.699219 24.605469 32.78125 Z M 19.726562 30.542969 L 19.105469 30.527344 C 18.882812 30.523438 18.707031 30.339844 18.710938 30.117188 C 18.714844 29.898438 18.898438 29.71875 19.121094 29.726562 L 19.746094 29.738281 C 19.964844 29.742188 20.140625 29.925781 20.136719 30.148438 C 20.132812 30.367188 19.953125 30.542969 19.738281 30.542969 C 19.734375 30.542969 19.730469 30.542969 19.726562 30.542969 Z M 22.914062 30.175781 C 22.910156 30.390625 22.730469 30.5625 22.515625 30.5625 C 22.511719 30.5625 22.507812 30.5625 22.503906 30.5625 L 22.042969 30.550781 C 21.824219 30.546875 21.648438 30.359375 21.65625 30.140625 C 21.660156 29.917969 21.84375 29.742188 22.066406 29.75 L 22.523438 29.761719 C 22.746094 29.769531 22.921875 29.953125 22.914062 30.175781 Z M 22.445312 32.566406 C 22.597656 32.726562 22.59375 32.980469 22.433594 33.132812 C 22.355469 33.207031 22.257812 33.246094 22.15625 33.246094 C 22.050781 33.246094 21.945312 33.207031 21.867188 33.125 L 21.320312 32.5625 C 21.167969 32.402344 21.171875 32.148438 21.332031 31.992188 C 21.492188 31.839844 21.746094 31.84375 21.898438 32.003906 Z M 20.582031 31.601562 C 20.734375 31.757812 20.730469 32.015625 20.574219 32.167969 C 20.496094 32.242188 20.394531 32.28125 20.292969 32.28125 C 20.1875 32.28125 20.085938 32.238281 20.007812 32.15625 L 19.460938 31.59375 C 19.304688 31.4375 19.308594 31.183594 19.46875 31.027344 C 19.628906 30.875 19.882812 30.878906 20.035156 31.039062 Z M 20.617188 27.941406 C 20.769531 28.097656 20.765625 28.351562 20.605469 28.507812 L 20.140625 28.960938 C 20.0625 29.035156 19.960938 29.074219 19.859375 29.074219 C 19.753906 29.074219 19.652344 29.03125 19.570312 28.949219 C 19.417969 28.792969 19.421875 28.539062 19.582031 28.382812 L 20.046875 27.929688 C 20.207031 27.777344 20.460938 27.78125 20.617188 27.941406 Z M 21.257812 28.84375 C 21.078125 28.714844 21.035156 28.464844 21.160156 28.285156 C 21.289062 28.101562 21.539062 28.058594 21.722656 28.1875 L 22.214844 28.535156 C 22.394531 28.664062 22.4375 28.914062 22.308594 29.09375 C 22.230469 29.207031 22.105469 29.265625 21.980469 29.265625 C 21.902344 29.265625 21.820312 29.242188 21.75 29.191406 Z M 24.054688 31.261719 L 23.800781 32.003906 C 23.746094 32.171875 23.589844 32.277344 23.421875 32.277344 C 23.378906 32.277344 23.335938 32.269531 23.292969 32.253906 C 23.082031 32.183594 22.96875 31.953125 23.042969 31.746094 L 23.296875 31.003906 C 23.367188 30.792969 23.59375 30.679688 23.804688 30.753906 C 24.015625 30.824219 24.125 31.054688 24.054688 31.261719 Z M 36.8125 26.480469 C 37.09375 25.621094 36.6875 24.699219 35.863281 24.332031 C 35.679688 24.25 35.5625 24.097656 35.523438 23.898438 C 35.5 23.773438 35.464844 23.652344 35.417969 23.539062 C 35.417969 23.507812 35.421875 23.480469 35.417969 23.449219 C 35.417969 23.296875 35.476562 23.179688 35.597656 23.089844 C 35.945312 22.828125 36.214844 22.441406 36.359375 22.003906 C 36.511719 21.546875 36.515625 21.058594 36.375 20.625 C 36.328125 20.472656 36.351562 20.332031 36.453125 20.207031 C 36.582031 20.046875 36.679688 19.863281 36.746094 19.664062 C 37.027344 18.808594 36.621094 17.886719 35.800781 17.515625 C 35.613281 17.433594 35.496094 17.285156 35.457031 17.082031 C 35.34375 16.449219 34.894531 15.933594 34.28125 15.730469 C 33.671875 15.53125 33.003906 15.679688 32.535156 16.121094 C 32.386719 16.257812 32.203125 16.308594 32.003906 16.265625 C 31.121094 16.074219 30.246094 16.574219 29.964844 17.429688 C 29.898438 17.628906 29.871094 17.835938 29.878906 18.042969 C 29.882812 18.203125 29.820312 18.332031 29.691406 18.421875 C 29.324219 18.6875 29.035156 19.082031 28.886719 19.539062 C 28.742188 19.976562 28.730469 20.449219 28.851562 20.867188 C 28.894531 21.011719 28.871094 21.140625 28.785156 21.261719 C 28.671875 21.414062 28.582031 21.582031 28.523438 21.761719 C 28.335938 22.335938 28.453125 22.957031 28.835938 23.421875 C 29.308594 23.996094 29.570312 24.667969 29.597656 25.367188 C 29.304688 25.625 29.082031 25.96875 28.953125 26.355469 C 28.808594 26.792969 28.796875 27.265625 28.917969 27.679688 C 28.960938 27.828125 28.9375 27.957031 28.847656 28.078125 C 28.738281 28.226562 28.648438 28.394531 28.589844 28.574219 C 28.402344 29.148438 28.519531 29.769531 28.902344 30.238281 C 29.648438 31.144531 29.855469 32.261719 29.488281 33.378906 L 29.484375 33.390625 C 29.453125 33.492188 29.460938 33.601562 29.507812 33.695312 C 29.554688 33.792969 29.640625 33.863281 29.742188 33.898438 L 31.3125 34.414062 C 31.351562 34.429688 31.394531 34.433594 31.4375 34.433594 C 31.605469 34.433594 31.761719 34.328125 31.816406 34.160156 L 31.820312 34.148438 C 32.1875 33.03125 33.019531 32.257812 34.160156 31.96875 C 34.746094 31.824219 35.210938 31.390625 35.398438 30.820312 C 35.457031 30.640625 35.488281 30.453125 35.484375 30.261719 C 35.484375 30.113281 35.542969 29.996094 35.664062 29.902344 C 36.011719 29.640625 36.28125 29.253906 36.425781 28.816406 C 36.574219 28.363281 36.582031 27.871094 36.441406 27.441406 C 36.394531 27.289062 36.417969 27.148438 36.519531 27.023438 C 36.648438 26.859375 36.746094 26.675781 36.8125 26.480469 Z M 29.285156 22.011719 C 29.316406 21.914062 29.363281 21.824219 29.425781 21.742188 C 29.667969 21.417969 29.738281 21.027344 29.621094 20.640625 C 29.546875 20.378906 29.554688 20.078125 29.648438 19.792969 C 29.746094 19.496094 29.925781 19.242188 30.15625 19.078125 C 30.503906 18.828125 30.695312 18.441406 30.679688 18.015625 C 30.675781 17.902344 30.691406 17.789062 30.726562 17.683594 C 30.878906 17.21875 31.355469 16.945312 31.832031 17.050781 C 32.285156 17.152344 32.742188 17.023438 33.082031 16.707031 C 33.335938 16.46875 33.699219 16.386719 34.03125 16.496094 C 34.363281 16.605469 34.605469 16.886719 34.667969 17.226562 C 34.753906 17.6875 35.046875 18.058594 35.472656 18.25 C 35.917969 18.449219 36.136719 18.949219 35.984375 19.414062 C 35.949219 19.523438 35.894531 19.621094 35.824219 19.707031 C 35.558594 20.042969 35.480469 20.46875 35.613281 20.875 C 35.703125 21.144531 35.695312 21.457031 35.597656 21.753906 C 35.503906 22.035156 35.332031 22.285156 35.113281 22.449219 C 34.988281 22.542969 34.886719 22.652344 34.808594 22.777344 C 34.667969 22.679688 34.515625 22.601562 34.347656 22.546875 C 33.738281 22.34375 33.066406 22.492188 32.597656 22.933594 C 32.503906 23.023438 32.398438 23.074219 32.28125 23.089844 L 32.453125 22.574219 L 34.601562 21.6875 C 34.804688 21.601562 34.902344 21.367188 34.820312 21.164062 C 34.734375 20.957031 34.5 20.859375 34.296875 20.945312 L 32.785156 21.570312 L 33.1875 20.347656 L 34.808594 19.679688 C 35.015625 19.59375 35.113281 19.359375 35.027344 19.152344 C 34.941406 18.949219 34.707031 18.851562 34.503906 18.9375 L 33.519531 19.34375 L 34.117188 17.527344 C 34.183594 17.316406 34.070312 17.089844 33.859375 17.019531 C 33.648438 16.953125 33.421875 17.066406 33.351562 17.277344 L 32.753906 19.089844 L 32.203125 18.179688 C 32.089844 17.988281 31.84375 17.925781 31.652344 18.042969 C 31.460938 18.15625 31.402344 18.402344 31.515625 18.59375 L 32.425781 20.097656 L 32.023438 21.320312 L 31.175781 19.917969 C 31.0625 19.726562 30.8125 19.667969 30.625 19.78125 C 30.433594 19.894531 30.375 20.144531 30.488281 20.332031 L 31.691406 22.324219 L 31.449219 23.058594 C 31.3125 23.078125 31.179688 23.113281 31.054688 23.160156 L 30.460938 22.179688 C 30.347656 21.988281 30.101562 21.929688 29.910156 22.042969 C 29.722656 22.160156 29.660156 22.40625 29.777344 22.59375 L 30.394531 23.621094 C 30.285156 23.738281 30.191406 23.878906 30.121094 24.027344 C 29.960938 23.636719 29.738281 23.261719 29.457031 22.914062 C 29.246094 22.660156 29.183594 22.324219 29.285156 22.011719 Z M 36.050781 26.226562 C 36.015625 26.335938 35.960938 26.433594 35.890625 26.523438 C 35.625 26.855469 35.546875 27.28125 35.679688 27.6875 C 35.765625 27.957031 35.761719 28.269531 35.664062 28.566406 C 35.570312 28.851562 35.398438 29.097656 35.179688 29.261719 C 34.855469 29.507812 34.679688 29.863281 34.683594 30.265625 C 34.683594 30.367188 34.664062 30.46875 34.632812 30.566406 C 34.53125 30.878906 34.28125 31.113281 33.960938 31.191406 C 32.691406 31.511719 31.703125 32.351562 31.195312 33.53125 L 31.15625 33.519531 L 31.78125 31.613281 L 33.894531 30.742188 C 34.101562 30.660156 34.199219 30.425781 34.113281 30.21875 C 34.027344 30.015625 33.792969 29.917969 33.589844 30.003906 L 32.113281 30.609375 L 32.515625 29.386719 L 34.664062 28.5 C 34.871094 28.417969 34.96875 28.183594 34.882812 27.976562 C 34.800781 27.773438 34.566406 27.675781 34.359375 27.761719 L 32.847656 28.382812 L 33.25 27.160156 L 34.875 26.492188 C 35.078125 26.410156 35.175781 26.171875 35.089844 25.96875 C 35.007812 25.765625 34.773438 25.667969 34.566406 25.75 L 33.582031 26.15625 L 34.179688 24.34375 C 34.25 24.132812 34.136719 23.90625 33.925781 23.835938 C 33.714844 23.765625 33.488281 23.882812 33.417969 24.09375 L 32.820312 25.90625 L 32.269531 24.992188 C 32.152344 24.804688 31.90625 24.742188 31.714844 24.859375 C 31.527344 24.972656 31.464844 25.21875 31.582031 25.410156 L 32.488281 26.910156 L 32.085938 28.132812 L 31.238281 26.734375 C 31.125 26.542969 30.878906 26.480469 30.6875 26.597656 C 30.5 26.710938 30.4375 26.957031 30.554688 27.148438 L 31.753906 29.136719 L 31.351562 30.359375 L 30.527344 28.992188 C 30.414062 28.804688 30.167969 28.742188 29.976562 28.859375 C 29.785156 28.972656 29.726562 29.21875 29.839844 29.410156 L 31.023438 31.367188 L 30.394531 33.269531 L 30.355469 33.257812 C 30.648438 32.007812 30.351562 30.742188 29.523438 29.730469 C 29.3125 29.476562 29.25 29.140625 29.351562 28.828125 C 29.382812 28.730469 29.433594 28.640625 29.492188 28.558594 C 29.734375 28.234375 29.804688 27.84375 29.691406 27.457031 C 29.613281 27.195312 29.621094 26.894531 29.714844 26.609375 C 29.8125 26.3125 29.992188 26.058594 30.222656 25.894531 C 30.570312 25.644531 30.761719 25.257812 30.746094 24.828125 C 30.742188 24.71875 30.757812 24.605469 30.792969 24.496094 C 30.945312 24.035156 31.421875 23.761719 31.898438 23.867188 C 32.351562 23.96875 32.808594 23.839844 33.152344 23.519531 C 33.40625 23.28125 33.769531 23.203125 34.097656 23.3125 C 34.429688 23.417969 34.675781 23.699219 34.734375 24.042969 C 34.820312 24.503906 35.113281 24.875 35.539062 25.066406 C 35.980469 25.261719 36.203125 25.765625 36.050781 26.226562 Z M 36.050781 26.226562 " fill-opacity="1" fill-rule="nonzero"/></g></svg>