<svg xmlns="http://www.w3.org/2000/svg" xmlns:xlink="http://www.w3.org/1999/xlink" width="73" zoomAndPan="magnify" viewBox="0 0 54.75 52.499999" height="70" preserveAspectRatio="xMidYMid meet" version="1.0"><defs><clipPath id="d42c4a1bd0"><path d="M 3.773438 1.566406 L 50.578125 1.566406 L 50.578125 48.371094 L 3.773438 48.371094 Z M 3.773438 1.566406 " clip-rule="nonzero"/></clipPath><clipPath id="468f47ca30"><path d="M 15.152344 7.878906 L 39.667969 7.878906 L 39.667969 42.054688 L 15.152344 42.054688 Z M 15.152344 7.878906 " clip-rule="nonzero"/></clipPath></defs><g clip-path="url(#d42c4a1bd0)"><path fill="#ed0024" d="M 27.246094 1.566406 C 14.28125 1.566406 3.773438 12.082031 3.773438 25.039062 C 3.773438 37.996094 14.28125 48.507812 27.246094 48.507812 C 40.210938 48.507812 50.71875 37.996094 50.71875 25.039062 C 50.71875 12.082031 40.210938 1.566406 27.246094 1.566406 Z M 27.246094 47.023438 C 15.105469 47.023438 5.261719 37.179688 5.261719 25.039062 C 5.261719 12.894531 15.105469 3.050781 27.246094 3.050781 C 39.390625 3.050781 49.230469 12.894531 49.230469 25.039062 C 49.230469 37.179688 39.390625 47.023438 27.246094 47.023438 Z M 27.246094 47.023438 " fill-opacity="1" fill-rule="nonzero"/></g><g clip-path="url(#468f47ca30)"><path fill="#ed0024" d="M 27.355469 7.882812 C 26.917969 7.863281 26.457031 7.933594 26.035156 8.125 C 25.832031 8.214844 25.667969 8.339844 25.511719 8.46875 C 25.335938 8.5 25.152344 8.542969 24.980469 8.632812 C 24.542969 8.855469 24.210938 9.226562 24.019531 9.65625 C 23.792969 10.152344 23.769531 10.65625 23.761719 11.085938 C 23.753906 11.375 23.761719 11.65625 23.773438 11.9375 C 23.691406 12.007812 23.578125 12.09375 23.496094 12.28125 C 23.40625 12.5 23.421875 12.699219 23.421875 12.753906 C 23.429688 12.921875 23.441406 13.09375 23.46875 13.261719 C 23.46875 13.261719 23.46875 13.265625 23.46875 13.265625 C 23.519531 13.613281 23.625 14.046875 23.929688 14.417969 C 24.007812 14.519531 24.09375 14.574219 24.171875 14.636719 C 24.253906 14.914062 24.351562 15.203125 24.535156 15.484375 C 24.921875 16.078125 25.503906 16.507812 26.160156 16.726562 C 26.214844 16.746094 26.273438 16.746094 26.328125 16.761719 L 26.054688 17.421875 L 25.652344 17.421875 C 25.578125 17.421875 25.554688 17.429688 25.527344 17.433594 C 25.441406 17.421875 25.355469 17.414062 25.269531 17.414062 L 25.28125 17.414062 C 24.777344 17.390625 24.28125 17.363281 23.789062 17.3125 C 22.976562 17.222656 22.171875 17.074219 21.363281 16.90625 C 21.289062 16.71875 21.210938 16.53125 21.148438 16.351562 C 20.851562 15.519531 20.617188 14.664062 20.410156 13.800781 C 20.71875 13.34375 20.90625 12.800781 20.90625 12.25 C 20.90625 11.515625 20.605469 10.792969 20.089844 10.273438 C 19.570312 9.753906 18.84375 9.449219 18.109375 9.449219 C 18.109375 9.449219 18.109375 9.449219 18.105469 9.449219 C 17.371094 9.453125 16.648438 9.757812 16.128906 10.273438 C 15.613281 10.792969 15.308594 11.519531 15.308594 12.25 C 15.308594 13.242188 15.898438 14.195312 16.761719 14.679688 C 17 15.664062 17.269531 16.644531 17.613281 17.605469 C 17.808594 18.160156 18.03125 18.703125 18.257812 19.238281 C 18.285156 19.308594 18.3125 19.339844 18.308594 19.339844 C 18.328125 19.378906 18.335938 19.394531 18.335938 19.394531 C 18.382812 19.484375 18.4375 19.574219 18.5 19.660156 C 18.5 19.660156 18.5 19.664062 18.5 19.664062 L 18.507812 19.671875 C 18.578125 19.765625 18.65625 19.855469 18.742188 19.929688 C 18.917969 20.09375 19.121094 20.21875 19.347656 20.304688 C 19.378906 20.316406 19.394531 20.320312 19.359375 20.308594 C 19.472656 20.351562 19.585938 20.375 19.699219 20.394531 C 19.703125 20.398438 19.707031 20.398438 19.707031 20.402344 C 20.890625 20.679688 22.085938 20.886719 23.296875 21.019531 L 23.296875 27.199219 C 23.296875 27.296875 23.308594 27.367188 23.316406 27.433594 C 22.882812 28.988281 22.480469 30.550781 22.132812 32.128906 C 21.589844 34.59375 21.164062 37.085938 20.835938 39.585938 C 20.828125 39.632812 20.828125 39.648438 20.832031 39.640625 C 20.632812 40.746094 21.375 41.8125 22.480469 42.007812 C 23.585938 42.203125 24.652344 41.460938 24.847656 40.355469 C 24.859375 40.285156 24.875 40.203125 24.878906 40.109375 L 24.878906 40.132812 C 25.191406 37.742188 25.605469 35.367188 26.125 33.011719 C 26.378906 31.855469 26.675781 30.703125 26.984375 29.554688 L 27.433594 29.554688 C 27.742188 30.703125 28.039062 31.855469 28.292969 33.011719 C 28.816406 35.367188 29.226562 37.742188 29.539062 40.132812 L 29.539062 40.109375 C 29.542969 40.203125 29.558594 40.285156 29.570312 40.355469 C 29.769531 41.460938 30.832031 42.203125 31.9375 42.007812 C 33.042969 41.8125 33.785156 40.746094 33.589844 39.640625 C 33.589844 39.648438 33.589844 39.632812 33.582031 39.585938 C 33.253906 37.085938 32.828125 34.59375 32.285156 32.128906 C 31.933594 30.550781 31.535156 28.988281 31.097656 27.433594 C 31.109375 27.367188 31.121094 27.296875 31.121094 27.199219 L 31.121094 21.921875 L 31.714844 20.9375 C 32.722656 20.804688 33.722656 20.632812 34.710938 20.402344 C 34.714844 20.398438 34.714844 20.398438 34.714844 20.394531 C 34.835938 20.375 34.953125 20.347656 35.066406 20.304688 C 35.046875 20.3125 35.0625 20.304688 35.074219 20.300781 C 35.296875 20.21875 35.503906 20.09375 35.679688 19.929688 C 35.765625 19.851562 35.84375 19.761719 35.917969 19.664062 C 35.933594 19.640625 35.933594 19.636719 35.917969 19.660156 C 35.984375 19.574219 36.035156 19.484375 36.082031 19.394531 C 36.082031 19.394531 36.09375 19.375 36.109375 19.339844 C 36.109375 19.339844 36.132812 19.304688 36.160156 19.234375 C 36.386719 18.703125 36.609375 18.160156 36.808594 17.605469 C 37.148438 16.644531 37.417969 15.664062 37.65625 14.679688 C 38.519531 14.195312 39.109375 13.242188 39.109375 12.246094 C 39.109375 11.515625 38.808594 10.789062 38.289062 10.269531 C 37.769531 9.75 37.042969 9.449219 36.308594 9.449219 C 35.578125 9.449219 34.847656 9.75 34.332031 10.269531 C 33.8125 10.789062 33.511719 11.515625 33.511719 12.246094 C 33.511719 12.800781 33.699219 13.339844 34.007812 13.796875 C 33.800781 14.664062 33.566406 15.519531 33.273438 16.351562 C 33.242188 16.4375 33.199219 16.53125 33.164062 16.625 C 33.136719 16.621094 33.109375 16.613281 33.082031 16.613281 L 31.535156 16.613281 C 31.4375 16.613281 31.359375 16.539062 31.359375 16.441406 C 31.359375 16.414062 31.367188 16.386719 31.378906 16.363281 L 32.78125 13.535156 C 32.886719 13.324219 32.875 13.0625 32.75 12.863281 C 32.628906 12.664062 32.398438 12.535156 32.164062 12.535156 L 30.980469 12.535156 C 30.972656 12.457031 30.960938 12.375 30.921875 12.28125 C 30.855469 12.128906 30.78125 12.078125 30.703125 12.003906 C 30.707031 11.976562 30.710938 11.953125 30.714844 11.925781 C 30.757812 11.523438 30.773438 11.101562 30.707031 10.667969 C 30.644531 10.234375 30.5 9.792969 30.238281 9.402344 L 30.238281 9.398438 C 29.828125 8.785156 29.199219 8.398438 28.582031 8.160156 C 28.234375 8.027344 27.855469 7.945312 27.464844 7.914062 C 27.429688 7.894531 27.394531 7.886719 27.355469 7.882812 Z M 27.300781 8.792969 C 27.304688 8.792969 27.304688 8.792969 27.308594 8.796875 C 27.625 8.8125 27.945312 8.890625 28.257812 9.007812 C 28.761719 9.203125 29.210938 9.496094 29.480469 9.902344 C 29.65625 10.160156 29.761719 10.472656 29.8125 10.800781 C 29.859375 11.125 29.851562 11.46875 29.8125 11.824219 C 29.808594 11.867188 29.796875 11.929688 29.785156 12.007812 C 29.757812 12.207031 29.832031 12.402344 29.980469 12.535156 L 28.511719 12.535156 C 28.238281 12.535156 27.972656 12.710938 27.867188 12.964844 L 26.667969 15.921875 C 26.59375 15.902344 26.519531 15.886719 26.445312 15.867188 C 25.976562 15.710938 25.5625 15.402344 25.292969 14.992188 C 25.160156 14.785156 25.074219 14.550781 25 14.285156 C 24.964844 14.160156 24.886719 14.050781 24.78125 13.972656 C 24.699219 13.910156 24.652344 13.875 24.632812 13.847656 C 24.480469 13.660156 24.40625 13.414062 24.367188 13.132812 C 24.347656 13 24.335938 12.867188 24.332031 12.730469 C 24.328125 12.644531 24.332031 12.640625 24.335938 12.628906 C 24.339844 12.621094 24.351562 12.605469 24.402344 12.566406 C 24.582031 12.453125 24.6875 12.253906 24.679688 12.039062 C 24.667969 11.722656 24.660156 11.414062 24.667969 11.109375 C 24.675781 10.699219 24.707031 10.332031 24.84375 10.03125 C 24.960938 9.773438 25.152344 9.5625 25.390625 9.441406 C 25.484375 9.394531 25.597656 9.359375 25.734375 9.339844 C 25.847656 9.324219 25.949219 9.277344 26.035156 9.203125 C 26.164062 9.089844 26.292969 9.003906 26.410156 8.949219 C 26.675781 8.828125 26.992188 8.78125 27.300781 8.792969 Z M 18.105469 10.359375 L 18.109375 10.359375 C 19.097656 10.359375 20 11.257812 20 12.25 C 20 12.664062 19.859375 13.082031 19.605469 13.410156 C 19.496094 13.550781 19.457031 13.734375 19.496094 13.90625 C 19.714844 14.828125 19.96875 15.75 20.289062 16.65625 C 20.386719 16.929688 20.492188 17.175781 20.585938 17.40625 C 20.660156 17.589844 20.820312 17.722656 21.011719 17.765625 C 21.890625 17.953125 22.78125 18.113281 23.6875 18.210938 C 24.210938 18.269531 24.726562 18.300781 25.242188 18.324219 C 25.25 18.324219 25.261719 18.324219 25.269531 18.324219 C 25.296875 18.324219 25.332031 18.328125 25.367188 18.332031 C 25.386719 18.332031 25.382812 18.332031 25.414062 18.339844 C 25.460938 18.34375 25.503906 18.347656 25.546875 18.34375 C 25.660156 18.335938 25.691406 18.328125 25.652344 18.328125 L 25.6875 18.328125 L 25.320312 19.230469 C 25.234375 19.441406 25.261719 19.691406 25.386719 19.878906 C 25.511719 20.066406 25.734375 20.1875 25.960938 20.1875 L 28.070312 20.1875 C 28.164062 20.1875 28.238281 20.265625 28.238281 20.359375 C 28.238281 20.371094 28.238281 20.382812 28.234375 20.394531 L 26.835938 26.441406 C 26.761719 26.761719 26.949219 27.117188 27.25 27.242188 C 27.554688 27.363281 27.9375 27.238281 28.105469 26.957031 L 30.214844 23.4375 L 30.214844 27.199219 C 30.214844 27.222656 30.203125 27.277344 30.191406 27.382812 C 30.183594 27.460938 30.1875 27.542969 30.210938 27.617188 C 30.648438 29.179688 31.046875 30.742188 31.398438 32.324219 C 31.9375 34.765625 32.359375 37.242188 32.683594 39.722656 C 32.683594 39.738281 32.6875 39.75 32.691406 39.765625 C 32.679688 39.710938 32.679688 39.71875 32.691406 39.792969 C 32.691406 39.796875 32.691406 39.800781 32.691406 39.804688 C 32.804688 40.425781 32.402344 41.007812 31.777344 41.117188 C 31.152344 41.226562 30.574219 40.820312 30.460938 40.195312 C 30.449219 40.132812 30.445312 40.085938 30.445312 40.066406 C 30.445312 40.046875 30.441406 40.03125 30.4375 40.015625 C 30.125 37.597656 29.707031 35.199219 29.179688 32.820312 C 28.902344 31.566406 28.585938 30.320312 28.253906 29.085938 C 28.183594 28.828125 27.949219 28.648438 27.683594 28.648438 L 26.738281 28.648438 C 26.46875 28.648438 26.234375 28.828125 26.167969 29.085938 C 25.832031 30.320312 25.519531 31.5625 25.242188 32.820312 C 24.714844 35.199219 24.296875 37.597656 23.980469 40.015625 C 23.976562 40.03125 23.976562 40.046875 23.972656 40.066406 C 23.972656 40.085938 23.96875 40.132812 23.957031 40.195312 C 23.84375 40.820312 23.265625 41.226562 22.640625 41.117188 C 22.019531 41.007812 21.617188 40.425781 21.726562 39.804688 C 21.726562 39.800781 21.726562 39.796875 21.726562 39.792969 C 21.738281 39.71875 21.738281 39.710938 21.730469 39.765625 C 21.730469 39.75 21.734375 39.738281 21.734375 39.722656 C 22.058594 37.238281 22.484375 34.765625 23.023438 32.324219 C 23.371094 30.742188 23.769531 29.179688 24.210938 27.617188 C 24.230469 27.542969 24.238281 27.460938 24.226562 27.382812 C 24.214844 27.277344 24.203125 27.222656 24.203125 27.199219 L 24.203125 20.742188 C 24.203125 20.4375 23.972656 20.183594 23.671875 20.152344 C 23.589844 20.144531 23.523438 20.140625 23.476562 20.136719 C 22.277344 20.003906 21.082031 19.796875 19.902344 19.515625 C 19.894531 19.511719 19.882812 19.511719 19.871094 19.507812 C 19.949219 19.523438 19.941406 19.519531 19.851562 19.507812 C 19.789062 19.496094 19.730469 19.476562 19.675781 19.457031 C 19.671875 19.457031 19.671875 19.457031 19.671875 19.457031 C 19.554688 19.414062 19.449219 19.347656 19.355469 19.265625 C 19.308594 19.222656 19.269531 19.175781 19.238281 19.128906 C 19.238281 19.128906 19.234375 19.128906 19.234375 19.128906 C 19.234375 19.128906 19.234375 19.128906 19.234375 19.125 C 19.207031 19.089844 19.179688 19.046875 19.148438 18.988281 C 19.148438 18.988281 19.148438 18.984375 19.148438 18.984375 C 19.128906 18.945312 19.128906 18.945312 19.136719 18.960938 C 19.097656 18.878906 19.089844 18.863281 19.109375 18.910156 C 19.105469 18.902344 19.105469 18.898438 19.101562 18.890625 C 18.875 18.363281 18.65625 17.835938 18.46875 17.304688 C 18.125 16.34375 17.851562 15.355469 17.613281 14.355469 C 17.570312 14.179688 17.453125 14.035156 17.292969 13.957031 C 16.652344 13.648438 16.214844 12.957031 16.214844 12.25 C 16.214844 11.261719 17.117188 10.363281 18.105469 10.359375 Z M 36.308594 10.359375 C 37.300781 10.359375 38.203125 11.257812 38.203125 12.25 C 38.203125 12.957031 37.765625 13.648438 37.128906 13.953125 C 36.96875 14.03125 36.851562 14.175781 36.808594 14.351562 C 36.570312 15.355469 36.296875 16.339844 35.953125 17.300781 C 35.765625 17.832031 35.546875 18.359375 35.320312 18.890625 C 35.316406 18.894531 35.316406 18.902344 35.3125 18.90625 C 35.328125 18.863281 35.320312 18.882812 35.285156 18.957031 C 35.296875 18.933594 35.292969 18.941406 35.273438 18.980469 C 35.273438 18.984375 35.269531 18.984375 35.269531 18.984375 C 35.242188 19.042969 35.214844 19.085938 35.1875 19.125 L 35.1875 19.128906 C 35.148438 19.175781 35.109375 19.21875 35.066406 19.261719 C 34.972656 19.347656 34.867188 19.410156 34.75 19.457031 C 34.75 19.457031 34.75 19.457031 34.746094 19.457031 C 34.691406 19.480469 34.632812 19.496094 34.566406 19.503906 C 34.5625 19.503906 34.5625 19.503906 34.5625 19.503906 C 34.472656 19.519531 34.46875 19.523438 34.550781 19.507812 C 34.539062 19.507812 34.527344 19.511719 34.515625 19.515625 C 33.789062 19.6875 33.054688 19.816406 32.320312 19.929688 L 33.679688 17.664062 C 33.691406 17.644531 33.695312 17.621094 33.707031 17.601562 C 33.761719 17.542969 33.800781 17.480469 33.832031 17.40625 C 33.921875 17.175781 34.03125 16.929688 34.128906 16.65625 C 34.453125 15.75 34.703125 14.828125 34.921875 13.90625 C 34.964844 13.730469 34.921875 13.550781 34.8125 13.410156 C 34.558594 13.078125 34.417969 12.664062 34.417969 12.25 C 34.417969 11.257812 35.320312 10.359375 36.308594 10.359375 Z M 28.65625 13.445312 L 31.8125 13.445312 L 30.566406 15.960938 C 30.300781 16.496094 30.519531 17.144531 31.054688 17.410156 C 31.203125 17.484375 31.367188 17.523438 31.535156 17.523438 L 32.699219 17.523438 L 28.03125 25.308594 L 29.121094 20.601562 C 29.257812 20.019531 28.894531 19.4375 28.3125 19.304688 C 28.234375 19.285156 28.152344 19.273438 28.070312 19.273438 L 26.28125 19.273438 Z M 28.65625 13.445312 " fill-opacity="1" fill-rule="nonzero"/></g></svg>