<svg xmlns="http://www.w3.org/2000/svg" xmlns:xlink="http://www.w3.org/1999/xlink" width="73" zoomAndPan="magnify" viewBox="0 0 54.75 52.499999" height="70" preserveAspectRatio="xMidYMid meet" version="1.0"><defs><clipPath id="d37eb37e66"><path d="M 3.773438 1.566406 L 50.578125 1.566406 L 50.578125 48.371094 L 3.773438 48.371094 Z M 3.773438 1.566406 " clip-rule="nonzero"/></clipPath><clipPath id="0c5a318e1b"><path d="M 12.308594 9.535156 L 42.023438 9.535156 L 42.023438 40.738281 L 12.308594 40.738281 Z M 12.308594 9.535156 " clip-rule="nonzero"/></clipPath></defs><g clip-path="url(#d37eb37e66)"><path fill="#ed0024" d="M 27.246094 1.566406 C 14.28125 1.566406 3.773438 12.082031 3.773438 25.039062 C 3.773438 37.996094 14.28125 48.507812 27.246094 48.507812 C 40.210938 48.507812 50.71875 37.996094 50.71875 25.039062 C 50.71875 12.082031 40.210938 1.566406 27.246094 1.566406 Z M 27.246094 47.023438 C 15.105469 47.023438 5.261719 37.179688 5.261719 25.039062 C 5.261719 12.894531 15.105469 3.050781 27.246094 3.050781 C 39.390625 3.050781 49.230469 12.894531 49.230469 25.039062 C 49.230469 37.179688 39.390625 47.023438 27.246094 47.023438 Z M 27.246094 47.023438 " fill-opacity="1" fill-rule="nonzero"/></g><g clip-path="url(#0c5a318e1b)"><path fill="#ed0024" d="M 40.855469 35.824219 C 40.96875 36.613281 40.796875 37.347656 40.277344 38 C 39.0625 39.597656 36.386719 40.273438 35.132812 40.40625 C 34.460938 40.484375 33.765625 40.464844 33.113281 40.464844 C 32.785156 40.464844 32.4375 40.464844 32.089844 40.464844 C 31.050781 40.484375 29.992188 40.484375 28.972656 40.503906 L 28.816406 40.503906 C 28.105469 40.503906 27.410156 40.523438 26.699219 40.523438 C 25.773438 40.542969 24.851562 40.542969 23.925781 40.542969 C 22.90625 40.542969 21.902344 40.523438 20.882812 40.484375 C 19.054688 40.386719 17.550781 40.042969 16.339844 39.386719 C 14.375 38.328125 13.46875 37.132812 13.660156 35.84375 C 13.699219 35.632812 13.890625 35.496094 14.105469 35.515625 C 14.316406 35.554688 14.449219 35.746094 14.429688 35.960938 C 14.296875 36.902344 15.066406 37.828125 16.722656 38.714844 C 17.839844 39.308594 19.226562 39.636719 20.941406 39.714844 C 22.847656 39.8125 24.8125 39.773438 26.699219 39.753906 C 27.410156 39.734375 28.125 39.734375 28.816406 39.734375 L 28.972656 39.734375 C 29.992188 39.734375 31.03125 39.714844 32.070312 39.695312 C 32.417969 39.695312 32.785156 39.695312 33.113281 39.695312 C 33.765625 39.695312 34.402344 39.714844 35.039062 39.636719 C 36.347656 39.484375 38.675781 38.808594 39.660156 37.519531 C 40.027344 37.019531 40.179688 36.5 40.082031 35.921875 C 40.042969 35.707031 40.199219 35.515625 40.410156 35.476562 C 40.621094 35.457031 40.816406 35.613281 40.855469 35.824219 Z M 22.328125 34.226562 C 22.019531 34.1875 21.519531 34.109375 20.921875 34.050781 C 20.710938 34.035156 20.515625 34.167969 20.496094 34.378906 C 20.480469 34.59375 20.613281 34.785156 20.824219 34.804688 C 21.613281 34.898438 22.25 34.976562 22.460938 35.015625 C 24.003906 35.902344 25.601562 36.691406 27.238281 37.347656 C 28.914062 38.019531 30.667969 38.597656 32.417969 39.019531 C 32.457031 39.019531 32.476562 39.039062 32.515625 39.039062 C 32.6875 39.039062 32.84375 38.925781 32.878906 38.75 C 32.9375 38.539062 32.804688 38.328125 32.59375 38.289062 C 30.878906 37.867188 29.164062 37.308594 27.507812 36.652344 C 25.988281 36.035156 24.484375 35.324219 23.039062 34.496094 L 23.289062 33.765625 C 23.90625 31.972656 23.773438 30.027344 23.636719 28.160156 L 23.617188 27.890625 C 23.597656 27.679688 23.425781 27.523438 23.214844 27.523438 C 23 27.542969 22.847656 27.714844 22.847656 27.929688 L 22.867188 28.199219 C 22.980469 29.988281 23.117188 31.839844 22.558594 33.492188 Z M 42.085938 33.6875 C 42.046875 33.78125 41.96875 33.878906 41.875 33.917969 L 40.140625 34.59375 C 40.101562 34.609375 40.042969 34.609375 40.007812 34.609375 C 39.949219 34.609375 39.871094 34.59375 39.8125 34.574219 L 37.347656 33.242188 C 37.308594 33.222656 37.253906 33.1875 37.234375 33.148438 C 36.695312 32.453125 35.980469 31.585938 35.480469 30.992188 C 34.480469 29.796875 33.882812 28.292969 33.804688 26.734375 C 33.726562 24.847656 33.59375 23.324219 33.4375 22.226562 C 33.285156 21.128906 32.917969 20.476562 32.265625 20.1875 C 31.839844 19.996094 31.339844 19.917969 30.839844 19.859375 C 30.492188 19.800781 30.125 19.761719 29.761719 19.667969 C 29.433594 19.589844 28.453125 19.320312 28.453125 18.203125 C 28.453125 18.144531 28.453125 18.070312 28.46875 18.011719 C 28.164062 18.183594 27.796875 18.300781 27.355469 18.320312 C 27.316406 18.320312 27.296875 18.320312 27.257812 18.320312 C 26.832031 18.320312 26.410156 18.203125 26.042969 18.011719 C 26.042969 18.070312 26.042969 18.144531 26.042969 18.203125 C 26.0625 19.320312 25.0625 19.589844 24.734375 19.667969 C 24.367188 19.761719 24.003906 19.820312 23.65625 19.859375 C 23.136719 19.9375 22.65625 19.996094 22.230469 20.1875 C 21.578125 20.476562 21.210938 21.128906 21.054688 22.226562 C 20.902344 23.34375 20.785156 24.847656 20.691406 26.734375 C 20.613281 28.292969 20.035156 29.796875 19.015625 30.992188 C 18.515625 31.585938 17.800781 32.453125 17.261719 33.148438 C 17.222656 33.1875 17.183594 33.222656 17.148438 33.242188 L 14.683594 34.574219 C 14.625 34.609375 14.566406 34.609375 14.488281 34.609375 C 14.449219 34.609375 14.394531 34.609375 14.355469 34.59375 L 12.621094 33.917969 C 12.523438 33.878906 12.449219 33.800781 12.410156 33.6875 C 12.371094 33.589844 12.371094 33.476562 12.429688 33.378906 L 13.238281 31.800781 C 13.332031 31.605469 13.566406 31.53125 13.757812 31.625 C 13.949219 31.722656 14.027344 31.953125 13.929688 32.144531 L 13.316406 33.339844 L 14.46875 33.78125 L 15.144531 33.417969 L 14.488281 32.878906 C 14.316406 32.742188 14.296875 32.492188 14.429688 32.339844 C 14.566406 32.164062 14.816406 32.144531 14.972656 32.28125 L 15.875 33.011719 L 16.703125 32.570312 C 17.242188 31.875 17.9375 31.027344 18.4375 30.453125 C 19.34375 29.390625 19.863281 28.042969 19.921875 26.65625 C 20.054688 24.769531 20.171875 23.230469 20.324219 22.09375 C 20.515625 20.726562 21.035156 19.859375 21.941406 19.453125 C 22.480469 19.203125 23.039062 19.128906 23.578125 19.050781 C 23.925781 19.011719 24.253906 18.953125 24.5625 18.878906 C 25.175781 18.703125 25.292969 18.492188 25.292969 18.164062 C 25.292969 17.78125 25.175781 17.335938 24.964844 16.875 C 24.964844 16.855469 24.964844 16.855469 24.945312 16.835938 C 24.292969 15.46875 24.292969 13.464844 24.292969 13.390625 C 24.292969 13.253906 24.292969 13.101562 24.292969 12.964844 C 24.292969 12.773438 24.3125 12.597656 24.332031 12.425781 C 24.386719 11.789062 24.582031 11.230469 24.90625 10.789062 C 25.101562 10.519531 25.351562 10.269531 25.621094 10.09375 C 25.621094 10.09375 25.621094 10.09375 25.640625 10.09375 C 26.429688 9.535156 27.277344 9.574219 27.605469 9.613281 C 28.125 9.671875 28.488281 9.863281 28.585938 9.921875 C 28.683594 9.980469 28.777344 10.039062 28.875 10.09375 C 29.820312 10.75 30.144531 11.945312 30.183594 12.328125 C 30.222656 12.617188 30.222656 12.945312 30.222656 13.292969 C 30.222656 13.40625 30.222656 13.523438 30.222656 13.640625 L 30.222656 13.660156 C 30.222656 13.734375 30.203125 15.621094 29.566406 16.894531 C 29.566406 16.894531 29.566406 16.914062 29.550781 16.914062 C 29.414062 17.242188 29.242188 17.722656 29.222656 18.203125 C 29.222656 18.53125 29.335938 18.761719 29.953125 18.914062 C 30.261719 18.992188 30.589844 19.050781 30.9375 19.089844 C 31.476562 19.167969 32.035156 19.242188 32.574219 19.492188 C 33.476562 19.898438 33.996094 20.765625 34.191406 22.132812 C 34.34375 23.269531 34.480469 24.808594 34.554688 26.714844 C 34.613281 28.101562 35.152344 29.449219 36.039062 30.507812 C 36.519531 31.085938 37.234375 31.933594 37.773438 32.628906 L 38.601562 33.070312 L 39.503906 32.339844 C 39.679688 32.203125 39.910156 32.222656 40.042969 32.394531 C 40.179688 32.570312 40.160156 32.800781 39.988281 32.9375 L 39.332031 33.476562 L 40.007812 33.839844 L 41.160156 33.398438 L 40.546875 32.203125 C 40.449219 32.011719 40.527344 31.78125 40.71875 31.683594 C 40.910156 31.585938 41.140625 31.664062 41.238281 31.855469 L 42.046875 33.4375 C 42.125 33.476562 42.125 33.589844 42.085938 33.6875 Z M 28.855469 16.546875 C 28.855469 16.527344 28.855469 16.527344 28.875 16.527344 C 29.433594 15.410156 29.453125 13.640625 29.453125 13.621094 L 29.453125 13.582031 C 29.453125 13.464844 29.453125 13.371094 29.453125 13.253906 C 29.453125 12.925781 29.433594 12.636719 29.414062 12.367188 C 29.414062 12.347656 29.261719 11.25 28.433594 10.671875 C 28.375 10.636719 28.296875 10.578125 28.21875 10.539062 C 28.164062 10.5 27.914062 10.363281 27.507812 10.328125 C 27.316406 10.308594 26.660156 10.269531 26.0625 10.691406 C 26.0625 10.691406 26.0625 10.691406 26.042969 10.691406 C 25.851562 10.828125 25.679688 11 25.523438 11.210938 C 25.273438 11.558594 25.140625 11.984375 25.082031 12.484375 C 25.0625 12.636719 25.0625 12.8125 25.0625 12.984375 C 25.0625 13.117188 25.0625 13.253906 25.0625 13.371094 C 25.0625 13.40625 25.0625 15.316406 25.660156 16.527344 L 25.679688 16.566406 C 26.023438 17.164062 26.660156 17.527344 27.335938 17.511719 C 28.296875 17.472656 28.816406 16.625 28.855469 16.546875 Z M 36.347656 34.207031 C 36.425781 34.265625 36.5 34.285156 36.578125 34.285156 C 36.695312 34.285156 36.808594 34.226562 36.886719 34.128906 C 37.019531 33.957031 36.984375 33.726562 36.808594 33.589844 L 33.707031 31.242188 C 33.535156 31.105469 33.304688 31.144531 33.167969 31.316406 C 33.035156 31.492188 33.074219 31.722656 33.246094 31.855469 Z M 20.824219 31.222656 L 17.726562 33.570312 C 17.550781 33.707031 17.511719 33.9375 17.648438 34.109375 C 17.726562 34.207031 17.839844 34.265625 17.957031 34.265625 C 18.03125 34.265625 18.109375 34.246094 18.1875 34.1875 L 21.289062 31.839844 C 21.460938 31.703125 21.5 31.472656 21.363281 31.296875 C 21.230469 31.144531 21 31.105469 20.824219 31.222656 Z M 28.742188 36.246094 C 28.796875 36.382812 28.953125 36.460938 29.085938 36.460938 C 29.144531 36.460938 29.203125 36.441406 29.261719 36.421875 L 32.207031 34.996094 C 32.398438 34.976562 33.074219 34.878906 33.941406 34.785156 C 34.152344 34.765625 34.304688 34.574219 34.285156 34.359375 C 34.265625 34.148438 34.074219 33.996094 33.863281 34.035156 C 33.09375 34.128906 32.476562 34.207031 32.207031 34.246094 L 32.050781 33.800781 C 31.496094 32.125 31.550781 29.816406 31.6875 27.792969 C 31.707031 27.582031 31.53125 27.390625 31.320312 27.390625 C 31.109375 27.371094 30.917969 27.542969 30.917969 27.753906 C 30.761719 29.96875 30.703125 32.28125 31.320312 34.070312 L 31.476562 34.535156 L 28.914062 35.746094 C 28.742188 35.84375 28.644531 36.054688 28.742188 36.246094 Z M 28.742188 36.246094 " fill-opacity="1" fill-rule="nonzero"/></g></svg>